<mxfile host="app.diagrams.net" modified="2020-12-08T11:09:43.711Z" agent="5.0 (Windows NT 10.0; WOW64) AppleWebKit/537.36 (KHTML, like Gecko) Chrome/87.0.4280.88 Safari/537.36" etag="knKVJYohJ3FXIlQib-MC" version="13.11.0" type="github">
  <diagram id="3H3_Qlsaqcw9E4mh5J3B" name="Page-1">
    <mxGraphModel dx="3015" dy="1313" grid="0" gridSize="10" guides="1" tooltips="1" connect="1" arrows="1" fold="1" page="1" pageScale="1" pageWidth="1200" pageHeight="1100" math="0" shadow="1">
      <root>
        <mxCell id="0" />
        <mxCell id="1" parent="0" />
        <mxCell id="ItB4P-0cPvp-1sTLBnrw-3" value="&lt;span style=&quot;font-size: 17px ; color: black ; font-weight: bold&quot;&gt;&lt;br&gt;Complete&lt;br&gt;&amp;nbsp;Survey &lt;br style=&quot;font-size: 17px&quot;&gt;&lt;br&gt;&lt;/span&gt;" style="ellipse;html=1;shape=endState;perimeterSpacing=0;strokeWidth=5;fillColor=#B2C9AB;strokeColor=#788AA3;fontFamily=Helvetica;fontSize=17;fontColor=#46495D;" parent="1" vertex="1">
          <mxGeometry x="325" y="174" width="139" height="93" as="geometry" />
        </mxCell>
        <mxCell id="ItB4P-0cPvp-1sTLBnrw-4" value="&lt;span style=&quot;font-size: 17px ; color: black ; font-weight: bold&quot;&gt;Check &lt;br&gt;Reports&lt;br&gt;&lt;/span&gt;" style="ellipse;html=1;shape=endState;perimeterSpacing=0;strokeWidth=5;fillColor=#B2C9AB;strokeColor=#788AA3;fontFamily=Helvetica;fontSize=17;fontColor=#46495D;" parent="1" vertex="1">
          <mxGeometry x="739" y="174" width="139" height="93" as="geometry" />
        </mxCell>
        <mxCell id="ItB4P-0cPvp-1sTLBnrw-5" value="&lt;span style=&quot;font-size: 17px ; color: black ; font-weight: bold&quot;&gt;&lt;br&gt;Fill Weekly&lt;br&gt;Plan&amp;nbsp;&lt;br style=&quot;font-size: 17px&quot;&gt;&lt;br&gt;&lt;/span&gt;" style="ellipse;html=1;shape=endState;perimeterSpacing=0;strokeWidth=5;fillColor=#B2C9AB;strokeColor=#788AA3;fontFamily=Helvetica;fontSize=17;fontColor=#46495D;" parent="1" vertex="1">
          <mxGeometry x="541" y="174" width="139" height="93" as="geometry" />
        </mxCell>
        <mxCell id="ItB4P-0cPvp-1sTLBnrw-7" value="&lt;font style=&quot;font-size: 20px&quot;&gt;&lt;span style=&quot;font-style: normal&quot;&gt;Mini Survey Tool&lt;/span&gt;&lt;/font&gt;" style="verticalLabelPosition=middle;verticalAlign=middle;html=1;shape=mxgraph.basic.rect;fillColor2=none;strokeWidth=2;size=20;indent=5;labelPosition=center;align=center;fontSize=16;fontStyle=3;fontFamily=Helvetica;strokeColor=#0e8088;gradientDirection=south;fillColor=#00BABA;" parent="1" vertex="1">
          <mxGeometry x="3" y="4" width="1194" height="107" as="geometry" />
        </mxCell>
        <mxCell id="ItB4P-0cPvp-1sTLBnrw-10" value="" style="verticalLabelPosition=middle;verticalAlign=middle;html=1;shape=mxgraph.basic.rect;fillColor2=none;strokeWidth=1;size=20;indent=5;fontFamily=Helvetica;fontSize=16;fillColor=#B2C9AB;strokeColor=#788AA3;fontColor=#46495D;labelPosition=center;align=center;" parent="1" vertex="1">
          <mxGeometry x="3" y="406" width="1191" height="685" as="geometry" />
        </mxCell>
        <mxCell id="ItB4P-0cPvp-1sTLBnrw-18" value="Submit" style="verticalLabelPosition=middle;verticalAlign=middle;shape=mxgraph.basic.rect;fillColor2=none;strokeWidth=2;size=20;indent=5;labelPosition=center;align=center;fontSize=27;fontStyle=1;fontFamily=Helvetica;strokeColor=#0e8088;gradientDirection=south;fillColor=#00BABA;spacing=3;spacingTop=0;" parent="1" vertex="1">
          <mxGeometry x="983" y="1008" width="174" height="56" as="geometry" />
        </mxCell>
        <mxCell id="ItB4P-0cPvp-1sTLBnrw-22" value="&lt;br style=&quot;font-size: 20px; font-weight: 700;&quot;&gt;&lt;span style=&quot;font-size: 20px; font-weight: 700;&quot;&gt;Fill Weekly&lt;/span&gt;&lt;br style=&quot;font-size: 20px; font-weight: 700;&quot;&gt;&lt;span style=&quot;font-size: 20px; font-weight: 700;&quot;&gt;Plan&amp;nbsp;&lt;/span&gt;" style="text;html=1;strokeColor=none;align=center;verticalAlign=middle;whiteSpace=wrap;rounded=0;sketch=0;fillColor=#4481DB;fontSize=20;" parent="1" vertex="1">
          <mxGeometry y="319" width="1195" height="87" as="geometry" />
        </mxCell>
        <mxCell id="ItB4P-0cPvp-1sTLBnrw-26" value="" style="shape=image;html=1;verticalAlign=top;verticalLabelPosition=bottom;labelBackgroundColor=#ffffff;imageAspect=0;aspect=fixed;image=https://cdn2.iconfinder.com/data/icons/font-awesome/1792/hand-pointer-o-128.png;rounded=0;sketch=0;strokeColor=#788AA3;fillColor=#4481DB;fontColor=#000000;align=center;rotation=-30;imageBackground=#F7F7F7;" parent="1" vertex="1">
          <mxGeometry x="654" y="261" width="47.23" height="47.23" as="geometry" />
        </mxCell>
        <mxCell id="iZvC2-cqgZa5u_m9WsRP-1" value="" style="shape=image;verticalLabelPosition=bottom;labelBackgroundColor=#ffffff;verticalAlign=top;aspect=fixed;imageAspect=0;image=data:image/png,iVBORw0KGgoAAAANSUhEUgAABBMAAAGyCAYAAAC2voyxAAAgAElEQVR4Aey9fch023ne9/6hEPkjklKfI+vbx5Zxi4KNbGpjZGFJdowUSH2MJeSodpBiHMsyAckm6Qk1iYxxwcqHT4VxqDEnx/EfEjgYQw6OP8AcI5VCKKqrUBe3QVFLCaGmRqENddMPplzP62uudW/tmVl7npn17Gc/v4F59732Xh97X+u+Zt33NeuZ99GueT169GjHGwzwAXxgiz7w7LPPNp92Md/2trfxudd89r/kJS8BjwaPLXKBZ+IzHh/AB/ABfGAtPqC449RrLff6kO/j0Dw9aidPAH3NW57e/fm//ku8F2DwbX/17x0Mvv/s6/8DsJzBUn720pc9ATYz2Ez595Yf+tjuTe/6oZv3t3/o42DWgVmL4Vt/+O/e8POFF15oP+729oc//OHdq/69R7sX/3PewkBYvOtbwEJYPPvXHgebOuIfj3bvf9dj/wCLx/4AV8ILuBIsxA+4UvGAK8EDrgQLc+XVr371PiY7ZChHfdPbX7N7z099852+1yYmPPnVf2YIHl/1jU/sDs3TF4kJX/8f/eju+3/x93mDwVV9QH72ZV/x2quOgR/DY/nA9/zMb9+ICS+++OLsGvXRj35099SrHu12v8tbGAiLD7wLLISFAh0FDjriH492H/3AY/8Ai8f+AFfCC7gSLMQPuFLxgCvBA64Eiz1XnnpqNj5rT2ot/tb3vnH3kV99J+87wOBN73jt7qkD84SYgGhwJwk9YgKJ/iixBzGhLtynEkGCvuBF0Bcs9kEfwtteWIIr8Q+4EizgSsVCeMCVYAJXgsWeKweSVMSE9QgniAkIBnciGBxLFhETEBOO+cclryEm1IVbi/exN0Ff8CHoCxb7oA8xYc8fuBL/gCvBAq5ULIQHXAkmcCVY7LmCmLD63RaICYgJiAn4wOp84JKCwbG+EBPqwq3F+9iboC/4EPQFi33Qh5iw5w9ciX/AlWABVyoWwgOuBBO4Eiz2XEFMQEw4FshzjW+g53yAnQn4xZxfXOMcYkJduLV4H3sT9AUfgr5gsQ/6EBP2/IEr8Q+4EizgSsVCeMCVYAJXgsWeK4gJiAnXSADoc9vJJmLCtud3TfxFTKgLtxbvY2+CvuBD0Bcs9kEfYsKeP3Al/gFXggVcqVgID7gSTOBKsNhzBTEBMWFNiQP3cj+SVMSE+zFPW+ATYkJduLV4H3sT9AUfgr5gsQ/6EBP2/IEr8Q+4EizgSsVCeMCVYAJXgsWeK4gJiAlbSDh4hrHJLWLCWLwfsn8jJtSFW4v3sTdBX/Ah6AsW+6APMWHPH7gS/4ArwQKuVCyEB1wJJnAlWOy5gpiAmPCQExWe/bykGDHhPNzwt+W4ISbUhVuL97E3QV/wIegLFvugDzFhzx+4Ev+AK8ECrlQshAdcCSZwJVjsuYKYgJhAgrM8wXnomCEm4DOjOICYUBduLd7H3gR9wYegL1jsgz7EhD1/4Er8A64EC7hSsRAecCWYwJVgsecKYgJiwqikgHG2k4AiJmxnLtfOS8SEunBr8T72JugLPgR9wWIf9CEm7PkDV+IfcCVYwJWKhfCAK8EErgSLPVcQExAT1p5McH/rS1wRE9Y3J1vlCWJCXbi1eB97E/QFH4K+YLEP+hAT9vyBK/EPuBIs4ErFQnjAlWACV4LFniuICYgJW01CeK7rJbyICdfDFr+t2CIm1IVbi/exN0Ff8CHoCxb7oA8xYc8fuBL/gCvBAq5ULIQHXAkmcCVY7LmCmICYQPJSkxfwOI0HYsJpjPCjy2CEmFAXbi3ex94EfcGHoC9Y7IM+xIQ9f+BK/AOuBAu4UrEQHnAlmMCVYLHnCmICYgJJz2WSnoeEI2ICPjPK3xET6sKtxfvYm6Av+BD0BYt90IeYsOcPXIl/wJVgAVcqFsIDrgQTuBIs9lxBTEBMGJUUMM52ElDEhO3M5dp5iZhQF24t3sfeBH3Bh6AvWOyDPsSEPX/gSvwDrgQLuFKxEB5wJZjAlWCx5wpiAmLC2pMJ7m99iStiwvrmZKs8QUyoC7cW72Nvgr7gQ9AXLPZBH2LCnj9wJf4BV4IFXKlYCA+4EkzgSrDYcwUxATFhq0kIz3W9hBcx4XrY4rcVW8SEunBr8T72JugLPgR9wWIf9CEm7PkDV+IfcCVYwJWKhfCAK8EErgSLPVcQExATSF5q8gIep/FATDiNEX50GYwQE+rCrcX72Pu+BH3/xY8/2j169Gj3fd9x/HmOPeupawR9FduPfuBxUnAKt4dy/b5wZcR8wBW4cszP4Er8A64EC/nMzbqCmICYQNJzmaTnIeGImIDPjPJ3xIS6cB8L+HTtUkHfxz74ONlXwn/ofepejl13/+/85mXPd6zP6TWCvootYkLF41JcmfrdfSzDleobcKXiAVeCB1wJFvqsQ0x45+qFhI/86jt3b3rHa3dPHRB9Hu2alwI+JXmjgnzGebgJJWLCw5370bxHTKgL96lE5VJBn5P9Q0KCzp+6l2PX3T9iwu1wPIbx9BoJUsX6UlyZ4nwfyyRI1TfgSsUDrgQPuBIs9Fm3BjHhL/zYN+y+6s1P7L/4+Mo3vmz31r/8datO8r/u2151c7/f8u6vGXKfiAm/SOI2OoE7NR5iAj55ykcudR0xoS7cpxKVawR9TvxvKyC09+4+EROWzW+L4VKbBKlifQ2uLJ2TtdQnQaq+AVcqHnAleMCVYKHPr7sWE77hna/fiwjTLz/e+9PfMiRR1zf/S99zYoLPfecH37S4v1PjIyYgJqxutwliAmLCpcSCU/0gJtSF+1TycY2gz4n/VEz4b597/JsHXsD/w3//0e7Xf6ber8o6rzp/9s882qkvPYP7lJggW9dUR2X1e+o5e64T9FUcSZAqHtfgSo9frrEOXKm+AVcqHnAleMCVYKHPsrsUE7QjwfGHRIW/8g++/SYJ//6//5abnQprFhPmkn/vrrjGrgrEBMQExAR8YHU+cEoEuNR1xIS6cJ9KRK4R9Dnx16Lt8T/3iQgAXsx9tKDwyb89/3sLn/65iAlu0x7f+JqM4/HOORL0VRxJkCoe1+DKOX66hjZwpfoGXKl4wJXgAVeChT677lJMcPKtP2uYS859TuKCvvX/01/+p27EBx1b8UH1dE5vCRDqTzGJykrsJVJ414DOtX+acG4792fhoI2BbPuan+M2R8QEEsnVJZLsTGBnwqXEglP9ICbUhftU4nGNoG9OTPhPf+CxUKD/jeF/+yeP79H1/D80SBTQovihpx/XkQCha1MxQf+zg57L/8OD2px6zp7rBH0VRxKkisc1uNLjl2usA1eqb8CVigdcCR5wJVjos+wuxYSepFtCgBJ+122PL3/Vl+5+5Je+40aIaM9P7bn22hWh5H5aty0fa2chxIJB2872Jf/cATEBMQExAR9YnQ+cEgEudR0xoS7cpxKRawR9Fgm0wHl8/TmCF7zpUX/WoHo+L/HA7Xx0n9PfTHCbS/ypA0FfxZ0EqeJxDa7Yv+/bEa5U34ArFQ+4EjzgSrDQ59zaxQT/poJ2G/jPILT7wLHGVBRwPYkMFgN0VBudkwChtlMRYGm7qZggYWLu3G12I7RtERNIJFeXSLIzgZ0JlxILTvWDmFAX7lNJyjWCPif+WkA9/jExwQKBF+tzxIS5Nh6790jQl/kSZiRIFY9rcKXXN9dWD65U34ArFQ+4EjzgSrDYrysH/svB5j8cvEnAv/W9bzz65wht8ttjO8ZwYj/X5lCCPj3vvtrfWZjWUf8aS3V1TeVz2831PXdu7pnOOYeYgJiAmDDIB37ud/6Xm8++/+P/+n9Xh/mppHur1xET6sJ9Kgm5RtA3JyboTxe0iLZ/5jC9N/+oov/MQX8OIbv9MwcLD27rhRkxYdm8G79jRxKkiuk1uHIM/zVfI0GqvgFXKh5wJXjAlWChz7QbrtyRmOBdAk7s55LsQwn69LxjD8SER492+sZ4q0kFz7Web8PXuDPhv/wX/+ZGCPjX/+bfnc2B/+5f/dubPv7F//p/nt0HfnpZP0VMqAv3qYTkGkHfnJigZN+L7/So+rrPtl1bBzFh2ZyemvPe6yRIFfdrcKV3LtZWjwSp+gZcqXjAleABV4KFPsfuUkzwLgHFF+0PKvoHFyUM+IcO/WcIEhx03jHJ0z/xTbfaYeB+looQUzFD9+Vz/oFH/1nGnEiy9Nxmdib88n/1r9sdL3v7j/7t/71T8vZTL3y+JHCf+Z/+932dD3/yfyzX2r5Ub5rA/c9/9Mc3bXWcXvvt3/+jnRLO9uV70DfT0/pt2f2q7VzC6etKbNt2W7MvISa089vORWsLt3/3//x/N6d+7b/5w6OYur/biAnTsTyf7T1p14Lm/pSvjJhz359EkEuMN33+S/R52z4QE+rCfSoJuUbQ5x9G1E6DdnyJAtqZ4MXUR/+goupKUPAPMepoocF9HtqZwG8mVKxb3M+17zJB0ny2fnDuM1yy3TW4csn7G9kXCVLl211yZeS8944FV+IfcCVYyH/uUkzQbxhIJHDsMT0qwW+Fg+l1tXVS7mtLRYFz21k4aP9Ew7/v4D7ba77Pc4+bEROc7LWJ2dRWou/kQ7Zf00TS3yDruoQAt/HR7VqhQYKE6h57nUpEp22nCaVFinZc39OWjnctJjjpbfG3f52aw0PzIB/TS327judzOu8ut/7qNiOP54oJ3sWh9u39Gtcp39o6o+37KiZ4MegN1i5Vj6Avgc6lgz4lxJ7X6VHzd+y6BZZWfFFyrf/hYjr36sd/IqJx3HZab2n53ARJ99Pet35gU//t55LxLSQYtyVtr1X3XK60ApnmSX+6MzeP17hvi3D+kdNLjXFprlzqvu6qn3O5cup+W16bC1M+9XyOeJz2v9+dCrOuc4njuVzpHdt+3T5D+5nTYuXPw0M731xXx97xl9SDKxXXuxQTlFhLUFDS3YoKsttEXAKBdyjIL/TnEbqutk7O/WOLrZjgNm1fstWHrqntue3m+tZOBIsM6te7JnyPtzluUkzQzgIlJUrwlZA5iVGS5gRR1/yafvM6FQXanQvtrgX3pbHaNuqv3QmhNvq2+VQi6vtxX9PdCU4+EROWbXW3ECB8e5JVz4P9SG3cx6k5PNS/5lKv1tfm5lOJtudfftv60aG+13b+tliNfJ5riQmHtukvTZIOBSFabJRAHbp+rfPXDvqudd/X6PfSQd8hn3HQeuy6A2AFy6rvt/6Lzemz+/coXMe7Oab1lpbPSZCUJM8lQH7mnntokyPZvYm322n8nnGW1jmHK/4vUT03Pl5qjk49g5OuNYsJml/hIj8+9TwjrjvhXvLZfg5Xep7F/jJ39GdEz+eIx/LniTkqzvjaJY/ncGXJ+BYGWjHBzzaHlXjoNnPXfW7JPfTWvfS6cmpcrwdL/PdUn5e8ftdiwm0S7IfUdtNigpMSJf1+tQm6k7Zpgui6PrbfpPpb1/Yb5naXw23+BMHjtTsj2mRyLvn0M27peImdCS0eTm6Fb3tetoUmCQetUOS50FHn3UfrKxKZ5E/uQ3+ioHrTMdpxWgHq0Hy2QlfrT63QoPvSN/9tf+113VN7L9N71dhuq7p6q72fRde8M8H96JzHVV09r146eheFn+nmwp/8Y8zcdyvSeBxf01GYtn6vc3qrnftX2fc1h3fvuWuJCQ4w24DXwUkb0Fxy0R3R17WDvhHPcKkxLh30tUH+3D2euq42DpD9Tf1UcNKPVDoxcJ1LJarnJEhOXnUvFgH0nEuS2R5czsVzrl3vuXO44rnxnGi+ZLvcO/ba6i3lip7XCVt7tJ/oXPvZepfP68/6JcnYOVzpeUZjJU6ovjglLum8151evli0UXsnnHPiZM99napzDldO9dletz8ZA13zZ6W5Ja61uxXm2gvH9vw17KVc0T34s9zzr2MvPzy3S/z3Gs99qE/EhHfudzesWZx4EGKCEgsnRkpCnGi0SbvPOaFUgqS6erVJi/vR0W18Tm187pyjEzCN52+y27GdSLXnNI4SrzapVT8SSpzg+V6UUPqZ2oTO19dyHCkmGHPh4bn3OR+V8ApzvZwYCyuLUa7nY7v7QPWUeOs19Y9D86k2vmY/cx8ew0fNp+Zf77mX7l3zPnevfpa5dsLC92B/Mz72oWm7tk17zc/gc6qnZ9Q9H+pLWOm+Ve/Ya+rjqr/kPVJM0GLpAMbBXnvOgYCTquk1Bz0677qy9XZA6/M6KsDQNR01rgMqXesNNNy/j9cO+jzOfTieE/Qde65TQf6p6+rb/qW5dmL66z+TANh+oqC5rXvsvnqvnZMg2Sd1r4e+9ZSvtsGybHPB7Vu/13PpntVfmxwoKTIWc+3Uh89PxQwH3B63B5NzuOLnOMRPiy9+Rj+n2/m+hKfeel77wUfe8/hz49izTfu3j0yTSM9H+znmseeO53LFCW2Lx9y5uTFHnTOnliRj53Cl53nsB+282KftMz2fIxrLvqC5lx+pb/lSz30srXMOV5aMMcVAbe3bLaddT8/a9n/ofFvnUvY5XPG8+x6WfF657hL/9TgjjogJiAmLgvolCcBcXSd7SjycrLT12us+3yZobuN6Ss4tEjjpUjslOXq13xg7IVIb933O0UmT7sHJofp2UjVN7jTGsYRM/akv34ue0a/2vK+v5XhXYoKf3xjZJ3TefmFfsO/IHzQHqmN8NWfuS0f70VRkmJtPt/M1j2cxwPMmn3C/8kWP7SRc96TrEhO8c0b35WfSOV3XeH5pDLXz8/gePKbHUH2d0z2o7tT/p1j5mTyO78GCmcdVvXYMCwVu53oa1zz0vXmMpcfRYoKDEgcwDmgsIChI11uL9DRIVV3Xa4MHB9fTPr3QO/D3dQcPbcDpuqeO1w76To2/puvnBH3H7v9UkN9e9/zr6CRBfdufNNeeZx09rhJJtZFvtXV9/TbHcxIk+a6TXd2X7rX1y0PP7GdwwqOy3+ZJ26+v6ajESPi052SrvrmkcituuC+LET04ncMVJW6+L/FWz6dvTD2e77ud8xYj13Mf7fH5v5m+/Tmi+u2zTfs3vv5MUn3h4n7be/PYc8dzueL5aH3Y5+y/upcWD1/3PeqZdE9+NvNC9dROb39Gqk2LZ9uvbPfpeup3+jk99/zTc+dwZdrHXNn3Zw7pGc15Y9g+n+vr2D6r+nY786D1k7mxb3PuHK4sGc9z3z6j59P+0WLV+rvGcXvhtGTcc+qewxXPo8ezT3rOdd7P67p6Xp03H9TG7Vs+TJ/Z9d1P62s+p6P7b8fwdbfxeMeOiAmICSWhWhrkL63vBEaJh5OVto/2us8rKfHL4oATKJX19kttlDj5pSTN/fhcm9i04/m6kze3mx5dz/042Zrem6+rvRPKNlHUfTr5VJ96TtXV0YmfkuHp+Gsp3wcxYW5+PX9TzH2+9RlhbV9r59Nz4GsWqNzH3FEihea2nXP5hXnge1Wf7r89uk/X9zXfg++vTfRdR0fv8HH/h8abjjPt331Oz0/bqZ7HOMUp93noOFpM8CKv4ESLrRbXNsBx0KLF1nZ73YuuF2WV3acXaLfzYu7AwGVfb4MH93vqeO2g79T4a7p+TtB37P41f57X9ujA9tD11j8cMGqO2/pK+pwEKinQfbR1j91X77VzEyTdl33Uz60dBU5UldA6odG9OMnRM6rcPqfv1Ul524/9XucOtdN54+JA3N/Keh48xqnjuVzxvRsLzZdFDD9DO+dzz++2wkq8N/eNszDV/fvZ7BPT/tXOfXkOfH/G8RQOun4uVzy+50J9+ZznY/r5p/u1b7TX/GxtX55rYeh+1V7juL6ueVwd9Va76fhLPk/P5YrHP3T0XE2P8gPzqfWXtl7rU/6s8DNqPCeRLX6H7mPp+XO50juO57J9Rs99i4Ht6Vy6va73jnluvXO44vv2mJ4rP4efVT6uOppXz+20rs63zynbuKmusPA4uuZ+PIauaZy2jeqZR20993PsiJiAmDCbuBwK6m973smFEo9pUqS+2+vtWE7AnJQ4cVHip7df6rP9hrftw3Wc+E3H83UnW23b1nY93avOW7zQt7AqT5MsnfNr+q23vznX9Tk82nHXZt93MUGCjQUc+4z8bIrz3Hyqjuddc2chyfM8d7S/aEzV97f2qis/sO8f8j/3OfWT6f3pul/ts1j0cv+HxnNbjzPt331Oz0/bqd6hMdxH73G0mOCgRMc2eNVi276nC2+7aGvhdV3ZDg69yGux9gKv6w4OHEi093BsEZ+7du2gb27MtZ47J+g79iyeR8+tj57L9vqhfhyo2Rc89woqnQQ6GZjWPdRn7/nbJkhKbH1PenY/g+69PW9cfH0Ol7n6bqfESs80107nNZ7qOsF2sC38erFQvdtwRVzV8+kefC9KBnVOZT2f72XuOfysuuZ6Orq9MZg+m6+3/RtLP799ygJH2/8h+1yu+DPSPqv+p+f8/Jo3235+H3XNz9Zi4mfzfau+x7If6Kjrbu8+zctpPfd17Hhbrhzq2/c2PVoIUrsWo0P9+LPCc656Fp7Ut4WJQ+2Xnr8NV3rG8tzN+XWLlQSyOb92e9XtGe82dc7hSvsMtr3emy/ts/t55Av+DJAf2zfMAT2Hr7u/9tn8WaBzts0X19P9mCs6t5QviAmICV+UPPUG+OfUc3KhxMPJSttP+w1+e97fqioBtHgg23X8Tb76d10LD65jQcJJv8/76OTIyZbPT49OmjSWrzlRU1Loftrrc23Utk385vBw/2s8rkVMEOZK0PW2f3kOLRJozpX8H8LRfmdRoK03N58a0/7UihIWCNq5b/vSHGss34v9RvU1tl7qz77g+urDL19zv9P703W/1K9wEWfMEQtaxsoCiu/JbT2OsVE912nHEBaH7s9jeD58z0uPo8UEB69atOcWeS/A06MXdC/UDhhUz/34nI7twu9F3uccSOg4HedU+dpB36nx13T9nKDv2P07kNP8zdU7dV1t7F+eW8+1kkcnpk4spnXnxlxy7lIJkgJ6YaD7c+DZ+rZtP+McLn42122Puqbnmmvn5zVWSixsGzfXOXW8BFf8DbHuX/fr+fQzHHoOP6/atPfZflbInj7bXP+eA32O+H7Uru33lH0uV3y/bXIzPed51H229vSe/GwtJvYT1xVuHsvPPdev2jlBauu5n1PHS3FlOk4770r4vW5oviwAGCPVnbZ32WuG+5se9cyue4njJbhy7D489y1vPPe6dqytrrn9McxO9dF7/RyueH40hv3Rz2q+uE57lC/YR1o/b+vYVj+H+tK402vG1e2nx14fQkxATDiYYC0N+HvqO7lQwuJkxe0sEuhau3tA15Ww+DUnFjjhUdLiJM9/y+3+27GPJY2nEh/fh/pz306udB/T5E51/HIi53btc03xcJ21Hu9aTHDibmyFn+fYc6hE2km06/nY1vE5J8st5p5P12mP6rv1M4/f1rGt+7Of+JyP6uPQvfo+XXfqJ74/++OhMdzez2ihxecPjXOsPwsRwsuv9v6Mh/tucV1ijxQTHJA4WNUC7IBGC/E02FB9L7gOEFz2wqw27neuD113YOjrrq/jdMxT5WsHfafGX9P1c4K+Y/d/Ksg/dV192588t9MAz99Iz9U9dm89185JkCQc6F7tmzrqHuXf4ol91VvqlRD5up9xDhcHyGrnJGr6DG071fE9qJ6/mXWy3eI27edQeSlXlKhrnPabUf9mgfDQ/bms+1JZ9+17VR3fiz8f9Iw+56Pxs684KdZ14+1EROc0hvtzm/YzzP0eO57LFT2jxm7Hm57zPLafje39+778bC0mfh7XacdqP3PnxjBubT33c+p4DldO9anrnic/o+bOPnyML23f7Q4E9zc9zuHb9rHUXsqVpf177tv79twbl2N9ur1wOFbvEtfO4Yrnx+P72eQH5kv77K6noz8r5cf285ZvbV35vP1e52XPYdLej+y2Tdtfj42YgJiwT4iXBPfn1nVyocTDSYeSKCU2bdLnhMfjqI5frufkSXX8ra7r6DjXh9vqutq7jo4WIU4lPh6jHV/34KTOSW573dc0vp+7HVPn22f1ffpbX19b0/HSYoLnsMXCz2s8jJ3OyzbWOgpP99HOoc5LnHIfnj8JP+rHbdrE2OPqaKHK7XRUXfWpvtu6suXL9qW2jcQy+XF7L7rv1k9Upx1Pts6pX99/i0F7f+5H1/2S/xgj3dO0re7FL7efG0ft2vvyfet5/Pxz7dSnXmrreuccryUmeFH2ouqjA952EfWC7DrtwutzOrYLvM+7H5fbo6+5fwUVOufAqCeIch8+XjPoc6LkxNFjXvro4NoB97n9nxP0HRur9Zm5eu31dp5l+2/gHUS2c+vksa2n/ufqzo3be+6cBElzPX0WlTVHSq7tE3N1/IwtLr7X9ty0rds5yG6vu/30mvH19Z7jUq74W//2fmyb+9P78nUffV8uCwef83GKqfHQddlqO008pvM016/7nzueyxU/r59ffU/Pea792eqyMdCxfbb23s0B37PqeqypSOC6qqPPVH9OT+u5r2PHc7hyrD9f8zO3z+g5FackLszh43byDT1/i4P71tHPquuah/babeylXFk6ljFo/drz2fr/oX7dXs99qM6lzp/DFc+f78HzZF/2s87NmedbbdTe8YL7ao8ax35vHhoTn1d9jyfb/bc+2fZ5ykZMQEy4VZC/NDFwcuEEZnpUQqJkbK7faYLWJkbtrgb1qWRnrg/Vc9IzHdvlNhGd68P1nHy5TpvEqU57fXrNffjYigZt3bYPj7OW46XFhLt6LvuVRIW7uodLjtv6zyX7vcu+riUmnFogL3ndi7UDBQeLbeB0qfFuE/QpkFVQ1ia3ukd/E+uA7Rr33T6/A69zgxv3dU7Q57ZzxzaZPHXdz+Cjk10nfS6rH3/T6GTCfc/V9bVzjuckSPJZ+a8FHh11X8LC96Bv3n1dvuNv4p0EGDfVcRsdNb9+RuOkY4uNbPc99TuV3c7cavs/ZZ/DFQX0LT9k+zk9nuo44NRPXWwAACAASURBVNdR8+t7dR0/05yP61l8Xc/XPpvw0LkpFvYhXWuTBo936nhprpwab+3Xz+FKzzN5Xtt5b3cnaH7NF/t2e2z50Pbhsad9+fxtj+dwZcmYc37tz4Ypv+b6dXvhO3f9kufO4YrnsL0PnzO//Znh8+ax4weLCerDdXz054Hq+JyO7efO9FrrP67Xtm3v9ZiNmICYMDSBahMdJ9I6KqHTnwDMfdPrJKYVIiQI+LyPTgrV3/TPCVxHR32bqsTRuwV8Hyqrnb8Jbtu0tr/pnUs+2296p9fVr76hbcUMlYVJ27/uz3VakaGtswZ7C2KC/M2v9lv2NeB77j20HDu3j7W124KY4IXaQYMXdQUJxxbpc66dG/QpCG2TpDaokK17eehiwjnzsaY210qQ7uoZHWQ7kF56H+dyZek496H+OQnSfXiuc+9xa1w5Fwe3gytZq+FKsJB/3Ccx4eu+7VVFbFFs8/JXfenuG975+t33//237D7yq/dDGDjnPt/0jtfunnrqKac95fioLQkUJXlrSwa4n9/f3JxsQUzw7wbcdhv+mvy73aWzpvu6zb1sQUzQgjtNzq8hJGicc4M+J2a6T33LI3FB/ekbT39DgphQgyjhc5/eW0qQ2m9g22/slszHuVxZMsZ9qUuCVLm8Ja5cwgfhSvwDrgQL+dZ9EhO+6s1PfFEs1sZmf+HHvmGRoPCnv/xP3fR3H4QIxIRf3F4yfpvkag1ttyAmrAFH7uE0t7ciJlwioOvp49ygzwuqtqgfGqcVE2R7y66+GW63vSvRkzjh6xIjVL/tV/W9jVVjq74FDN+Lt2F6J8fSLawEfRXzLSVIrU/Yb1r/6rHP5UpP3/etDlzZLlcu4YtwJf4BV4KFfOs+iglv/ctftxcNnv6Jb9p95RtfdiMKSBz4K//g2/fXTu0AcKzy3p/+lu42p/q81nXEBMSE1e1sQEw4nQQjFFwGI8SEunCfCgzPCfqUtHtRdAI/N47FBNdtj969oHaH/lzCQoWEBAsNbR8WHHxO99Le29JvoAn6qu9sSUyY88+l587hytIx7kt9uAJXjvkqXIl/wJVgIZ+572KCkvcf+aXv2MdA3/nBN90IAzpaZFBMIqFBfw6huhIPHKe0R4sKrUCh6/rzirvevYCYgJiAmIAPrM4HRokliAl14T4W8OnaOUFfm7D3ign6UwiN5x++0oKpsn8ITuKCfyPC/Xtngf+kQqKD6uibZQkJUzFB4oFFh6VCgu6FoK/6DmJCxeMcrsivtviGK3Ve4UrFA64ED7gSLPRZuAUxQYKC/wRCib/KrUjQ2hIUDokJEgwkJLT1bS/d9XDpHQqICSSSq0sk2ZlwmW/dRyXk93kcxIS6cJ9KZM4J+pzsa9HrEROmP3jnxVI7Do7tXlA9CQf+QUqLB9Nncn8SJGRPx5vWP1Qm6Ku+Q4JU8TiHK4d87b6fhyvVN+BKxQOuBA+4Eiz0ubc1MUGighJ5/X6Cdxqo/C3v/pqbeMTXW8GhrefdDP5TCu1k8A8/etfDpYWCnv4QExATEBPwgdX5wCiBAjGhLtynkpZzgj7tDnACfyjB17gWCqbJvdtKiHAdn2uP2mWwRExodz1ox8OpZ59eJ+irmJEgVTzO4crUx7ZShivVN+BKxQOuBA+4Eiz0+bc1MUE7D5ScSyCQCOAfWXQsc0pMcL25owSJnsT/GnUQE0gkV5dIsjOBnQmICXVBXUtScW7Q590CWgCn/5uD/hxBz2eh4JiY4B/Ga//MYYqNf3jRf+ag6xrTQoYX4VackBDhP5uY9neoTNBXfZQEqeJxLlcO+dt9Pg9Xqm/AlYoHXAkecCVY6DNvC2KCfnTRcYd2D7Rln/fxNmKCdytcQyw41SdiAmICYgI+sDofQEyoC+paEolzg75DP4roBVTP1yMmaOeBf+fAbX20CNH+WYWv6TgnJmhc/6Cj2/diTdBXfZQEqeJxLld6/e8+1YMr1TfgSsUDrgQPuBIs9Bl338WE9scStQuh/YHFl7/qS2/KStS1Y0FxypyYoD7UTm+1Ub27FA7mhAXEBBLJ1SWS7ExgZwJiQl1Q15I43Cbo0zf/+nFE/1aBFkQl8P4TA//ZwTSpVz29JUgIB/czFRW0I8E4qU+LBKrX/teQbuffb1B/Pud7cT/HjgR9wVs4kSBVPG7DlWN+dx+vwZXqG3Cl4gFXggdcCRb7deWpp3anXooRvvW9b7yzbf5KsCUEOF6ZHiUk6HcSVE8/pDi97nIrJlg48DX9aYREBJenx/a3FeYS/mueQ0xATEBMwAdW5wOICXVBXUsCQdCXeSHoCxb7oO9V9dxa/PYu7gOuxBfgSrCAKxUL4QFXgglcCRZ7rtwTMcE/hNgm+frBRO060J82tMm8hAWLBTpaJGjFBIkDbR33obb+IcZ2rLv87yERE0gkV5dIsjOBnQmICXVBvYtkaG5Mgr7MC0FfsNgHfYgJ+90xcCX+AVeCBVypWAgPuBJM4Eqw2HPlnogJrVjw0GzEBMQExAR8YHU+gJhQF1Qtqmt4E/RlHgj6gsU+6ENM2PMUrsQ/4EqwgCsVC+EBV4IJXAkWe64gJpRdDWsUKhATSCRXl0iyM4GdCYgJdUHVorqGN0Ff5oGgL1jsgz7EhD1P4Ur8A64EC7hSsRAecCWYwJVgsecKYgJiwqikgHG2k4AiJmxnLtfOy+/5md+++TGbF198cfb3fT760Y/eBDpa1HgT9LU+QNBXOcGPylU8SJCCB1wJFvsECeFtv6bClfgHXAkWe64gJiAmrD2Z4P7Wl7giJqxvTrbKE8SEunC3yfKcTdAXvAj6gsU+6CNBIkGaEV7hClyZW098jnUl/gFXgsV+XUFMQEzYahLCc10v4UVMuB62+G3FFjGhLtwO7g4dCfqCF0FfsNgHfYgJiAmICXsfOPQ5yi6e+tnBuhI8WFeCxX5dQUxATCB5qckLeJzGAzHhNEb40WUwQkyoC/eh4NfnCfqCF0FfsNgHfYgJ+0QSrsQ/4EqwgCsVC+EBV4IJXAkWe64gJiAmkPRcJul5SDgiJuAzo/wdMaEu3Fq8j70J+oIPQV+w2Ad9iAl7/sCV+AdcCRZwpWIhPOBKMIErwWLPFcQExIRRSQHjbCcBRUzYzlyunZeICXXh1uJ97E3QF3wI+oLFPuhDTNjzB67EP+BKsIArFQvhAVeCCVwJFnuuICYgJqw9meD+1pe4Iiasb062yhPEhLpwa/E+9iboCz4EfcFiH/QhJuz5A1fiH3AlWMCVioXwgCvBBK4Eiz1XEBMQE7aahPBc10t4EROuhy1+W7FFTKgLtxbvY2+CvuBD0Bcs9kEfYsKeP3Al/gFXggVcqVgID7gSTOBKsNhzBTEBMYHkpSYv4HEaD8SE0xjhR5fBCDGhLtxavI+9CfqCD0FfsNgHfYgJe/7AlfgHXAkWcKViITzgSjCBK8FizxXEBMQEkp7LJD0PCUfEBHxmlL8jJtSFW4v3sTdBX/Ah6AsW+6APMWHPH7gS/4ArwQKuVCyEB1wJJnAlWOy5gpiAmDAqKWCc7SSgiAnbmcu18xIxoS7cWryPvQn6gg9BX7DYB32ICXv+wJX4B1wJFnClYiE84EowgSvBYs8VxATEhLUnE9zf+hJXxIT1zclWeYKYUBduLd7H3gR9wYegL1jsgz7EhD1/4Er8A64EC7hSsRAecCWYwJVgsecKYgJiwlaTEJ7regkvYsL1sMVvK7aICXXh1uJ97E3QF3wI+oLFPuhDTNjzB67EP+BKsIArFQvhAVeCCVwJFnuuICYgJpC81OQFPE7jgZhwGiP86DIYISbUhVuL97E3QV/wIegLFvugDzFhzx+4Ev+AK8ECrlQshAdcCSZwJVjsuYKYgJhA0nOZpOch4YiYgM+M8nfEhLpwa/E+9iboCz4EfcFiH/QhJuz5A1fiH3AlWMCVioXwgCvBBK4Eiz1XEBO2JSZ8zVu+Z/fn//ov8QaDq/rA17zl6d1LX/bEVcfAj+GxfODb/urf2z169Gj3wgsv7OZeH/3oR28CHS1qvAn6Wh8g6Kuc+OgHHvtHi9FDtkmQ4h9wJViIE3Cl4gFXggdcCRZ7riAmbEtMUNDNGwzwAXxgaz7w7LPPzmkJuw9+8IO7J17+aPf83+QtDITFW78eLITFM//x488BHfGPR7un3/rYP8DisT/AlfACrgQL8QOuVDzgSvCAK8HCXHnyySdn47P2pGLSb33vG1efdH/kV9+5yXt80zteu3vqgOjzaDpR3/3u9+2e+8QLvMHgqj7w9Lvft/uKJ1951THwY3gsH/jYx587ujPhu77ruxBQEZHxAXwAH8AH8AF8AB+4Ax/4ki/5kjYdnbUlJrzpHa/Zveenvpn3HWDw1Dc+sXv1q189PzftWU3Uhz78zO6f/8sv8AaDq/qA/Ow1r3vDVcfAj+GxfOA3P/XZm+DgxRdfbD/u9vbNnzkcUFv3lR6QIeX5Ax/4wAN64sOPKp/RunjIdw633OYVuFLnFa4ED7gSLGTBlYoHXAkecCVYLOGK1mLed4vBS17ykjp5f1L6op0JiAkkYCOScMQE/GyEnyEmzH7uHz1J0Bd4CPqChSwSpIoHXAkecCVYwJWKhUpwJZjAlWAhq3ddkZDw/ve//0bcF4a8x2Lwrne9i50JoxIXxulLkhET+nDCn26PEzsT6sJ9qkTQF4QI+oKFrN6gr7babgmuZG7hSrCQBVcqHnAleMCVYLGEKxITxCted4OAdqyKx3Mvdibw5wx38qcGiAm3T5IRGvowREyY++g/fI6gL9gQ9AULWSRIFQ+4EjzgSrCAKxULleBKMIErwUJW77qCmFBxG11CTEAwuBPB4Fiyi5jQlwgfw5BrfRgiJixbcgj6ghdBX7CQ1Rv01VbbLcGVzC1cCRay4ErFA64ED7gSLJZwBTGh4ja6hJiAmICYgA+szgdGiSGICcuWHIK+4EXQFyxkkSBVPOBK8IArwQKuVCxUgivBBK4EC1m96wpiQsVtdAkxgURydYkkOxP6vlUflXBveRzEhGVLDkFf8CLoCxayeoO+2mq7JbiSuYUrwUIWXKl4wJXgAVeCxRKuICZU3EaXEBMQExAT8IHV+cAoAQMxYdmSQ9AXvAj6goUsEqSKB1wJHnAlWMCVioVKcCWYwJVgIat3XUFMqLiNLiEmkEiuLpFkZwI7ExATRi8FfeMR9AUngr5gIas36KuttluCK5lbuBIsZMGVigdcCR5wJVgs4QpiQsVtdAkxATEBMQEfWJ0PICaMXgr6xiPoC04EfcFCFglSxQOuBA+4EizgSsVCJbgSTOBKsJDVu64gJlTcRpcQE0gkV5dIsjOBnQmICaOXgr7xCPqCE0FfsJDVG/TVVtstwZXMLVwJFrLgSsUDrgQPuBIslnAFMaHiNrqEmICYgJiAD6zOBxATRi8FfeMR9AUngr5gIYsEqeIBV4IHXAkWcKVioRJcCSZwJVjI6l1XEBMqbqNLiAkkkqtLJNmZwM4ExITRS0HfeAR9wYmgL1jI6g36aqvtluBK5hauBAtZcKXiAVeCB1wJFku4gphQcRtdQkxATEBMwAdW5wOICaOXgr7xCPqCE0FfsJBFglTxgCvBA64EC7hSsVAJrgQTuBIsZPWuK4gJFbfRJcQEEsnVJZLsTGBnAmLC6KWgbzyCvuBE0BcsZPUGfbXVdktwJXMLV4KFLLhS8YArwQOuBIslXEFMqLiNLiEmICYgJuADq/MBxITRS0HfeAR9wYmgL1jIIkGqeMCV4AFXggVcqVioBFeCCVwJFrJ61xXEhIrb6BJiAonk6hJJdiawMwExYfRS0DceQV9wIugLFrJ6g77aarsluJK5hSvBQhZcqXjAleABV4LFEq4gJlTcRpcQExATEBPwgdX5AGLC6KWgbzyCvuBE0BcsZJEgVTzgSvCAK8ECrlQsVIIrwQSuBAtZvesKYkLFbXQJMYFEcnWJJDsT2JmAmDB6Kegbj6AvOBH0BQtZvUFfbbXdElzJ3MKVYCELrlQ84ErwgCvBYglXEBMqbqNLiAmICYgJ+MDqfAAxYfRS0DceQV9wIugLFrJIkCoecCV4wJVgAVcqFirBlWACV4KFrN51BTGh4ja6hJhAIrm6RJKdCexMQEwYvRT0jUfQF5wI+oKFrN6gr7babgmuZG7hSrCQBVcqHnAleMCVYLGEK4gJFbfRJcQExATEBHxgdT6AmDB6Kegbj6AvOBH0BQtZJEgVD7gSPOBKsIArFQuV4EowgSvBQlbvuoKYUHEbXUJMIJFcXSLJzgR2JiAmjF4K+sYj6AtOBH3BQlZv0FdbbbcEVzK3cCVYyIIrFQ+4EjzgSrBYwhXEhIrb6BJiAmICYgI+sDofQEwYvRT0jUfQF5wI+oKFLBKkigdcCR5wJVjAlYqFSnAlmMCVYCGrd11BTKi4jS4hJpBIri6RZGcCOxMQE0YvBX3jEfQFJ4K+YCGrN+irrbZbgiuZW7gSLGTBlYoHXAkecCVYLOEKYkLFbXQJMQExATEBH1idDyAmjF4K+sYj6AtOBH3BQhYJUsUDrgQPuBIs4ErFQiW4EkzgSrCQ1buuICZU3EaXEBNIJFeXSLIzYdnOBH2Ivuzlr1jdPI4SBG4zzm9+6rM74acFfO7Vu5DNtd3iOYK+zCpBX7CQBVcqHnAleMCVYAFXKhYqwZVgAleChazedQUxoeI2uoSYgJiwuiQUMWG5mKAP0tsk1Q+1LWLCsiWHoC94EfQFC1m9QV9ttd0SXMncwpVgIQuuVDzgSvCAK8FiCVcQEypuo0uICR1iwqc+87ndD/3oj998g/mWb//Oo0nbP/3d37up++e+/htv6svBZf/YMz+5Uz+Hkra/8/Hndupb9f1+11/83t0/+pXfONjmUF/3/fxDFxP+8a9/eu8Dp/xNc21/ue/zfhf3j5iwbMkh6AteBH3BQhYJUsUDrgQPuBIs4ErFQiW4EkzgSrCQ1buuKA5WXV53gwBiwgkxQcn869/w1fuE7Vhy9/P/8Ff29dRGddu2EhXmEqZWeFAbvZ0g6qh+59pt9dxDFxPe+/0/WOZfAtWxubavHKvDtfndHogJyxYegr7gRdAXLGT1Bn211XZLcCVzC1eChSy4UvGAK8EDrgSLJVxBTKi4jS4hJhwRE7SbwImaE3wdDyVmf+unf/ZGCNA3y22dth/Vaa/J1t+7a2dCu3NBtkUGCRLTNlsuP3QxQf6gt0UF+c+x+baPHqvDtfsnJnzoQx/a6b2m11qCPvv8O9/5zjuDZ8tB36c//Xh31BJwSZAqWnfJlU9+8pO7N77xjTc39LnPfe4mjtHxrl5b5so5mG6BK5dcn+6SK+fMX9tGa5A+L/Vq7bbOEhuuVLR6uYKYUHEbXUJMOCAmaEeCnFMJvWyXj4kJxxI271BY0l4Cg4PmY31v7dpDFhM85xISvNPllJj0EH3kUj6/hp0JCkA0h9Ng/5LB2qUWlnOCPj/fxz72sdnb0HPq+Q9dnzZSPfV56qVk6ppizLlBn+7LnNWx51lOPeulr69BTPA9tFid8hEl0ao/5dKl8enp7xyu9PTb1hEeel49d/vaupjgebZvrGG+W/xP2b0J0lw//rz0s1/K3803J8bq13xr/cn3dMn16bZc0b0u+Rydex4/19KjxjVmrb20H9c/d11x+60de7kiH1BdXneDAGLCATFBW8vbb4RvKyb07GyYJkgeUySZXtty+SGLCfqdDM23/7RFOxRUli8cmnNdt4+onXe06Jz6m+6UaftRffum6ntHxLHx2vb33b5rMUFBsHBXYObAzUvBJYM193nb4zlBnwIsvfWc05efX9f1vD2vteBybtAnMUHBrF/XFj08zpKjE4slbXqDvt4+p/dgX3Hg3tvPXdU7hytL79W+I/60rzZZMm463tXrXK7M3a/9ws+jY+9nx1x/d3HuNlyZfv5ZULrmc7T+5HGm9+Hz5xxvwxXdm+5F64t94px7OLeNuOfPpNY+t79LcuXce1hTu16uaP5vIyb4c0X9TH1J8+rzxz5rpl8UTPu5BK7tGG3MKB74HqfjHrr/6TPbj8+5T8SEA2LCNElyYr9kZ0HbhxM8fePcnj9m+88jTn0zfayP+3jtoYoJErD0IaCE3vPmP3U45jf+AHFd+Yv81EKEjnOCguurvfyzbXOun/u+78vxrsUELQZanHqCNQdMmi8tKH6prRaL9nq7yLjeJY7nBH26N92P7ln32r78/Lp3vfVqbZUVIOqZdWwXRZ1Tf76uss+pnceV7XHc3vfRYtZiqjanXucGfVMcdC8eW/djrPQsXtzb+9T59jUNCPxsquOxjM20rcaau+Y+23FO2b1B36l+fH3uHvw8qqPn1HwaGz3LtI3LfkaV/dI59eFrngNfv+3xHK4sGVPPonu2/+voV+tT0+vGy3XNCeEg+xqvc7kydy+es0PXpvPY+syUXz//8z9/M/9tXy12x/ynbbPUvg1X9Ax6+zWdX5ft13oev475vNvpqJdxm35GGF/fR+s/Lb88Zs/xNlzR+BrXc+vx9By6V503Fn421bevu56fw9da3DyG+3Z/6r+9JrvFS/bS1yW5snTsNdbv5Yrm5FwxQT6gudNLtvpyWf5jv7YvuTzFS/5gfujaqfrT9qfKuif7sGzdp8q+Z/ubrvk+jt2/2ut6e6+n7uHQdcSEAWKCk0RNnL9xPpVs6bcVVH9Jm1N93pfrD1VM8Jy3woH8RT7QCgzTebSf6Nj+Jsex391o+53uQtA1/e8l03G2WL5rMUEf+A5aNH/tIqUPeX/Qa5HwQqEPc7VzWe3V1mX1obIXnUMf/uecPyfo08Lm+5fdvvzM7bO2tup6ofTzTK+7/7Zf2e15ja+xjLWu+57crsXU544dzw362jlX/7onndNLz2ZMPLbu09d1TmXjaGzsNy4bK7VTf36pncbQS+PaVrm9Zh9yu55jb9DX05fqTO/BZT/b1O+nbVRviltbFi5tWbawvdTrHK4sGbvlQevr6qP1qdYnpr6kPlTXrylHfP62x3O5cmhc3Wfr167XPrfPaV79jHpetTNfVKe9rrKxPOU/7v+c42240s67xla59eMWFz13W5bd1pVtn2/9RP22uMzhOsVy6ltLcDmXK75njaU5bZ/N1zz3uj/ds+tqnvWa1tM5XXM7l+0z9g+d92dSe23ar+oteV2aK0vGXmPdXq7It88VE6bPPeWJr8uHdK31DV/TUf7X+qDOqb59wnV0bnrefeu87FOvln9uK1/Wa1p2Xz6v+9dbY9l3p2W36T0iJgwQE7x1Xd/+HkrItAtB3wa33w6rfq/4cKjf+3j+oYoJ3r0ynXPvMNDvKczNpz+Y5q63Qla7O8E+2f4pz1zfWz93l2KCAxF/WGtxcLCjc9Oy602vaRGYLmAqe5Fo293WPifoa4Ov6eLlRbZ91tbW/TrY80I5va4+3E/7fO24WkTn6rT1p/221+bsc4M+zY3mzK82eJi7h2n9Fo+552qfe9pW4x7Coe1r6pu+12PH3qDvWB/tNd+DP990bO99zu/dpu3H9vRa64uqo+cX/pd6ncOVJWO39z/Foi3bX/Rs8odjr9Z3jtVbeu1crhwbR/dq33C99rl9ruXAHL9avzdW/qxxHzpO/ae9ttS+DVf0DH5uHY/57PR5Wp/RPbc+P63b4jaH6xRLt1+Kheqfy5X2/tWP7lnzpJfup/V3nffnR2tP66mt6umZ/VLZ/QpDtfGrvdbauq7x27puc+x4Da4cG2/t13q5onm5hJigeT7EK83vdP5b/DTfrc/pmtr4nGy99ZJfqC/5sMe0z7lO2/fUVp9qr5c/E+xr6lPX7LNuq359/9M6GlvXfA9u03tETLiymOAf1NMktcncNElzcqd67fvU37xP+9lC+SGKCfINzfvcDgTtEtA1+cLc/Npf5q7pnH/8sxUb3Ga6K+FQH1s9f5diwjQY84e5F4TpdS8enjtd10vtvFj5g1/lcxcF9zF3PCfo0wKmhUuv9pnae2zPt7baeNE9hIvqeJFscWjH1fgqT1+qbzx1NKbTenPlc4O+6ZjGRmNMn13npvV9v8LDAYHP+eg+1bb1g6mvGDe3M0YObuae+9C53qDvUPvp+bl70P35HqfPovbTNnP4eBw9cxtsqa77dp3bHM/hSu9402c3RzzX7XVf0/POPZ/n3kf7Tu+99NQ7lys9fYszune92ud225YDc/wyPuZTi9Ex/3H/5xxvw5X2GezvrR8LA8+lj3o2vVRu67Y+3+Kgui1uc7i296H60/Y3A3b+cy5X5j4bdV++H133S8/tuW1t3XdbT/VVT8/sl8rGTRgaT9f1tbaerqnftq77O3a8JleOjbvWa71c0bxcQkzQnE39QdiYV/YLlzWu68+1lU/4uupO3/JXf860viK7rdtec337nfpQXdeZXp+7/2kdP4+fb6k/ICZcUUxQgnjqW+W5JE3b0/XttL+pVh/HhIi5Pu7zuYcoJlgwaP/EwXNooUEfFtpp4PM++gPH5elRu11Up92FcKrNtI+tlu9STPAcTI/6kNerDda0IDlIml7Th78XKy8AKp+7KLiPueM5QZ/u3c+kxU/P64XLY7TPqrrts3pR9ULZ1nV7H1uc2nHVp8rtq62r88f6bdvZPjfoOzY3c/dwrP7cc/n+dJy2bX1FY7WYtH15ntq+Ttm9Qd+pfnx97h7ac+2zzLWZ+ljbVvXlhzrnV/v8Pneb4zlc6R1P8zb93FDZ89li0/JH/qB590tlPbdfat+Wff62x3O50jNu+3yaTz1T+2o5MMcv1fVz6yjs9DrlP+0YS+3bcGX6DC2P7eP+rGyx0T0e8/lp3Ra31p/8rNP7mLZ3vZ7jOVzxeG3/fn6d0/XWF3TN/GjtaT21bZ/Nfeqol31F9tw119N1ja/+l7yuyZUl97GWur1ckW/fVkzQfKmf6cufBac+G9W+9Tn1034uy5Zv0cjuYgAAIABJREFUTV/qV9d6fMV1/TmlvnzO7aflufv3OfvrtDy9x1NlxIQriQmtkNAmcUuSMokK/lb50LfSS/q7L3Ufophg0UkCkv/cpT3qg0bv9jcRPJ++5vL0iJjwhS8SYIzRXYkJ/uCefkBrofFi1AY0bQCjNppzL0rqy23cn8o6f+nXOUHf9N51b7p/LXh+tc86xUbtVd8LZVvX7X1sr7XjaiyV21d7XedbTNt6h+xzg75jc9Pev8fVvU/n19eEie7bAYHP+zgdq/WV6Viqa4wcJLufnmNv0NfTl+rM3YPu2ffYPov7bNtMr6utsPJritucj7juOcdzuNIzzqE5N290vX1219fRtq7r1fqHr7W87LmfnjrncmWub82j71/Xdb+eVz+D+eBrrj/1efevesLC/eh8i6HKU/9x23OOt+HK9Bns83p2274nP7+u6XXM542d67a+Me1XfU3vY9re99BzPIcrejbdw/Tl+9b9yPZLz+DPjtae1lN9P4vwUhu91Wbumu7B19p6qqvx1deS1yW5smTctdbt5Yrm6jZiguau5b/x0NzqvPzt1Evz3fqcfENtW/+YG0OfNTrffk7NjTWt5zq+R7dv78PXpvdvH/f5Q8/vMU4dEROuICa0QsLcN81OZHqO/sZaCWFP/S3UeWhignah6IOk5z33P3u43aG5tyDV/haD2/BnDp+9wV0L+NyrdyGba3vsnD64/SHe1vMHv45tsOYPfs9be00LSLuAqT+VvbC0/d/WPifomz6rF8Q2yGqfR/fohU3PO60/rWtMdGxxaMcV1iq3r2OYtvUO2ecGfcfmZvpsHlvnDz2nfaa9rnN6Tcea+krbRmMYI/fp8XuOl+aK76G9x3Z+p8+ie3Qb32/rR8bQ19SvcdK5OR9x3XOO53ClZ5xj96ln0vUWG/u5+WY+6dmNlzEWRmp/6de5XDl0H75fH9t6un+ft0/rmfVSWe/pyxhNrx3zn2kfS8q34crcM+g+fe86ts8v23Mv+5DPGwPXnX52qKz2/oyY3se0/RI8rsWVJfewlrqX5spanuvc++jlinxTdc95TT8H1Ze50n4G+Lw5MB3LHHE9Hc0n122vyTYfW94e+gye69+8bz/31K9fx+7fa4HvaXqv7qPniJhwYTHhkkKCkkN/q4yYcPjb5UNJ9H0579/LOCY8tX/qILt9Nn8QtL+J4Ov+L01Vp/0TCf8Jzbm7Ztz/fT/e1c6Eng/nNdYh6MusEPQFC1m9QV9ttd0SXMnc3geuaI206JA7v461Rq7cRgy4LUpwJQjeB67kbq9v9XJF/D1XTLj+U2x/BMSEC4oJ5wgJ2rYuoWDuG2L/V4EiyVyieN8TuUP3/5B2JuhPWTS/ek9Fgik+FgCmooPb69j+GUT7X0NOxSj/MKj+vGLqeyrzX0M+/vDvXci2v1Q8fkKCvsw0QV+wkAVXKh5wJXisnSv+ZjJ3fF1rjVwZjUGLMFwJGmvnSu50jNXLFcW/qsvrbhBATDggJuhbXCVgfjuRU/Llczq23/b6G2Y5dVtnarfbzZ3UqU3bt/+GXuenyeM0ydxa+SGJCRaM5v58YTqvrivfaK/JR+Sf9lH1JZ+zD+nY+qnbur7bq43/JGI6htts7cjOhGULD0Ff8CLoCxayeoO+2mq7JbiSuV07V7RV+NDW5TzF5ay1ccVboQ9tr77ck8/3BFeCy9q5kjsdY/VyRXEsYsKYOZkbBTHhgJjQbiuXkx56t98mt2LCofo63357rORM3wRLMHAipzpK5tTf9FvjrSVzc8/zkMQEJfBzPjGHi3YaWCBo/ULt1Y/a6M8W7EeqK7+aExLcv+q3ooLaqk3bv+tu8YiYMLcsHD5H0BdsCPqChazeoK+22m4JrmRu4UqwkAVXKh5wJXjAlWCxhCuKgxETKnYjS4gJB8SELSZO9+WZHpKYcF/mZKv3iZiwbLkh6AteBH3BQhYJUsUDrgQPuBIs4ErFQiW4EkzgSrCQ1buuICZU3EaXEBMQE8qW+TUkjYgJ2/2xyTX4V3sPiAnLlhyCvuBF0BcsZPUGfbXVdktwJXMLV4KFLLhS8YArwQOuBIslXEFMqLiNLiEmICYgJuADq/OBNuG/po2YsGzJIegLXgR9wUIWCVLFA64ED7gSLOBKxUIluBJM4EqwkNW7riAmVNxGlxATSCRXl0iyM4GdCdcUENq+EROWLTkEfcGLoC9YyOoN+mqr7ZbgSuYWrgQLWXCl4gFXggdcCRZLuIKYUHEbXUJMQExATMAHVucDbcJ/TRsxYdmSQ9AXvAj6goUsEqSKB1wJHnAlWMCVioVKcCWYwJVgIat3XUFMqLiNLiEmkEiuLpFkZwI7E64pILR9IyYsW3II+oIXQV+wkNUb9NVW2y3BlcwtXAkWsuBKxQOuBA+4EiyWcAUxoeI2uoSYgJiAmIAPrM4H2oT/mjZiwrIlh6AveBH0BQtZJEgVD7gSPOBKsIArFQuV4EowgSvBQlbvuoKYUHEbXUJMIJFcXSLJzgR2JlxTQGj7RkxYtuQQ9AUvgr5gIas36KuttluCK5lbuBIsZMGVigdcCR5wJVgs4QpiQsVtdAkxATEBMQEfWJ0PtAn/NW3EhGVLDkFf8CLoCxaySJAqHnAleMCVYAFXKhYqwZVgAleChazedQUxoeI2uoSYQCK5ukSSnQnsTLimgND2jZiwbMkh6AteBH3BQlZv0FdbbbcEVzK3cCVYyIIrFQ+4EjzgSrBYwhXEhIrb6BJiAmICYgI+sDofaBP+a9qICcuWHIK+4EXQFyxkkSBVPOBK8IArwQKuVCxUgivBBK4EC1m96wpiQsVtdAkxgURydYkkOxPYmXBNAaHtGzFh2ZJD0Be8CPqChazeoK+22m4JrmRu4UqwkAVXKh5wJXjAlWCxhCuICRW30SXEBMQExAR8YHU+0Cb817QRE5YtOQR9wYugL1jIIkGqeMCV4AFXggVcqVioBFeCCVwJFrJ61xXEhIrb6BJiAonk6hJJdiawM+GaAkLbN2LCsiWHoC94EfQFC1m9QV9ttd0SXMncwpVgIQuuVDzgSvCAK8FiCVcQEypuo0uICYgJiAn4wOp8oE34r2kjJixbcgj6ghdBX7CQRYJU8YArwQOuBAu4UrFQCa4EE7gSLGT1riuICRW30SXEBBLJ1SWS7ExgZ8I1BYS2b8SEZUsOQV/wIugLFrJ6g77aarsluJK5hSvBQhZcqXjAleABV4LFEq4gJlTcRpcQExATEBPwgdX5QJvwX9NGTFi25BD0BS+CvmAhiwSp4gFXggdcCRZwpWKhElwJJnAlWMjqXVcQEypuo0uICSSSq0sk2ZnAzoRrCght34gJy5Ycgr7gRdAXLGT1Bn211XZLcCVzC1eChSy4UvGAK8EDrgSLJVxBTKi4jS4hJiAmICbgA6vzgTbhv6aNmLBsySHoC14EfcFCFglSxQOuBA+4EizgSsVCJbgSTOBKsJDVu64gJlTcRpcQE0gkV5dIsjOBnQnXFBDavhETli05BH3Bi6AvWMjqDfpqq+2W4ErmFq4EC1lwpeIBV4IHXAkWS7iCmFBxG11CTEBMQEzAB1bnA23Cf00bMWHZkkPQF7wI+oKFLBKkigdcCR5wJVjAlYqFSnAlmMCVYCGrd11BTKi4jS4hJpBIri6RZGcCOxOuKSC0fSMmLFtyCPqCF0FfsJDVG/TVVtstwZXMLVwJFrLgSsUDrgQPuBIslnAFMaHiNrqEmICYgJiAD6zOB9qE/5o2YsKyJYegL3gR9AULWSRIFQ+4EjzgSrCAKxULleBKMIErwUJW77qCmFBxG11CTCCRXF0iyc4EdiZcU0Bo+0ZMWLbkEPQFL4K+YCGrN+irrbZbgiuZW7gSLGTBlYoHXAkecCVYLOEKYkLFbXQJMQExATEBH1idD7QJ/zVtxIRlSw5BX/Ai6AsWskiQKh5wJXjAlWABVyoWKsGVYAJXgoWs3nUFMaHiNrqEmEAiubpEkp0J7Ey4poDQ9o2YsGzJIegLXgR9wUJWb9BXW223BFcyt3AlWMiCKxUPuBI84EqwWMIVxISK2+jSIjHhu9/9vt1zn3iBNxhc1Qeefvf7dl/x5CuvOgZ+DI/lAx/7+HM7LUIvvPDC7Gfv008/vXvpS1+6e/vb38777W+/weJVr3oVWLz97bs3v/nNN76jI/7x9ptvF+FKPieEBVx5jAdciV/os0LJM1wJJnAlWMCVYGGufNmXfdlsfNaeRExo0RhvLxITNFm8wQAfwAe25gPPPvvs7KcvYkJd2An6ggdBX7Bw0EeCFEzgSrCAK8ECrlQshAdcCSZwJViYK71igkQ6teE9HgMJ54fm6VEbXSt5+L73/cDu1174Ld5gcFUf+Evv+4HdK1/5lVcdAz+Gx/KBX3jul4/uTGA7arsK8LetLRpsR23RYOt2RQOutHjAlRYNuFLRgCstHnClRaOfK8pRERPGiwgWbhaJCX/jmZ/Y/eEX/pg3GFzVB+Rnr3/DV111DPwYHssHPvPZP7gRE7SAz70QEyoq/G1r8CDoCxay4ErFA64ED7gSLOBKxUIluBJM4EqwkNW7rkhMUF1ed4PAoj9zQEwgARuRhCMm4Gcj/AwxYfmiQ9AXzAj6goWs3qCvttpuCa5kbuFKsJAFVyoecCV4wJVgsYQriAkVt9ElxAR2GaxuBwBiAmICYsLopaBvPIK+4ETQFyxkkSBVPOBK8IArwQKuVCxUgivBBK4EC1m96wpiQsVtdAkxATEBMQEfWJ0PICaMXgr6xiPoC04EfcFCVm/QV1tttwRXMrdwJVjIgisVD7gSPOBKsFjCFcSEitvoEmICieTqEkl2JrAzATFh9FLQNx5BX3Ai6AsWskiQKh5wJXjAlWABVyoWKsGVYAJXgoWs3nUFMaHiNrqEmICYgJiAD6zOBxATRi8FfeMR9AUngr5gIas36KuttluCK5lbuBIsZMGVigdcCR5wJVgs4QpiQsVtdAkxgURydYkkOxPYmYCYMHop6BuPoC84EfQFC1kkSBUPuBI84EqwgCsVC5XgSjCBK8FCVu+6gphQcRtdQkxATEBMwAdW5wOICaOXgr7xCPqCE0FfsJDVG/TVVtstwZXMLVwJFrLgSsUDrgQPuBIslnAFMaHiNrqEmEAiubpEkp0J7ExATBi9FPSNR9AXnAj6goUsEqSKB1wJHnAlWMCVioVKcCWYwJVgIat3XUFMqLiNLiEmICYgJuADq/MBxITRS0HfeAR9wYmgL1jI6g36aqvtluBK5hauBAtZcKXiAVeCB1wJFku4gphQcRtdQkwgkVxdIsnOBHYmICaMXgr6xiPoC04EfcFCFglSxQOuBA+4EizgSsVCJbgSTOBKsJDVu64gJlTcRpcQExATEBPwgdX5AGLC6KWgbzyCvuBE0BcsZPUGfbXVdktwJXMLV4KFLLhS8YArwQOuBIslXEFMqLiNLiEmkEiuLpFkZwI7ExATRi8FfeMR9AUngr5gIYsEqeIBV4IHXAkWcKVioRJcCSZwJVjI6l1XEBMqbqNLiAmICYgJ+MDqfAAxYfRS0DceQV9wIugLFrJ6g77aarsluJK5hSvBQhZcqXjAleABV4LFEq4gJlTcRpcQE0gkV5dIsjOBnQmICaOXgr7xCPqCE0FfsJBFglTxgCvBA64EC7hSsVAJrgQTuBIsZPWuK4gJFbfRJcQExATEBHxgdT6AmDB6Kegbj6AvOBH0BQtZvUFfbbXdElzJ3MKVYCELrlQ84ErwgCvBYglXEBMqbqNLiAkkkqtLJNmZwM4ExITRS0HfeAR9wYmgL1jIIkGqeMCV4AFXggVcqVioBFeCCVwJFrJ61xXEhIrb6BJiAmICYgI+sDofQEwYvRT0jUfQF5wI+oKFrN6gr7babgmuZG7hSrCQBVcqHnAleMCVYLGEK4gJFbfRJcQEEsnVJZLsTGBnAmLC6KWgbzyCvuBE0BcsZJEgVTzgSvCAK8ECrlQsVIIrwQSuBAtZvesKYkLFbXQJMQExATEBH1idDyAmjF4K+sYj6AtOBH3BQlZv0FdbbbcEVzK3cCVYyIIrFQ+4EjzgSrBYwhXEhIrb6BJiAonk6hJJdiawMwExYfRS0DceQV9wIugLFrJIkCoecCV4wJVgAVcqFirBlWACV4KFrN51BTGh4ja6hJiAmICYgA+szgcQE0YvBX3jEfQFJ4K+YCGrN+irrbZbgiuZW7gSLGTBlYoHXAkecCVYLOEKYkLFbXQJMYFEcnWJJDsT2JmAmDB6Kegbj6AvOBH0BQtZJEgVD7gSPOBKsIArFQuV4EowgSvBQlbvuoKYUHEbXUJMQExATMAHVucDiAmjl4K+8Qj6ghNBX7CQ1Rv01VbbLcGVzC1cCRay4ErFA64ED7gSLJZwBTGh4ja6hJhAIrm6RJKdCexMQEwYvRT0jUfQF5wI+oKFLBKkigdcCR5wJVjAlYqFSnAlmMCVYCGrd11BTKi4jS4hJiAmICbgA6vzAcSE0UtB33gEfcGJoC9YyOoN+mqr7ZbgSuYWrgQLWXCl4gFXggdcCRZLuIKYUHEbXUJMIJFcXSLJzgR2JiAmjF4K+sYj6AtOBH3BQhYJUsUDrgQPuBIs4ErFQiW4EkzgSrCQ1buuICZU3EaXEBMQExAT8IHV+QBiwuiloG88gr7gRNAXLGT1Bn211XZLcCVzC1eChSy4UvGAK8EDrgSLJVxBTKi4jS4hJhxJJF/4jd/ZfeAHf3j31Fd/zU6Oqvc7vvO7dr/w3C8fTL7+69/773cf+fH/ZPfmb/ymfRvZf/sn/7Pd//C5f3WwnZMntdcYGkttfP4hHR/qzoTv+d737H3G/qaj/E9+KN94SH4w4lk/89k/uMFcC/jci6CvokLQFzwI+oKFLLhS8YArwQOuBAu4UrFQCa4EE7gSLGT1riuKlVWX190ggJhwQEyQIOCETmKAEvxXvOIV+3O6Pk12PvErv7a/rgRQbVohQv1M27Tlv/uzP1fGQEx4WNv9LSLZ31T2Ofmi/A9B4bI+gZiwbOEh6AteBH3BQlZv0FdbbbcEVzK3cCVYyIIrFQ+4EjzgSrBYwhXEhIrb6BJiwgExQd8SSzBokzftLGi/PX7x0/+siAMSA5T8Tc9LFLAwoTqtgCC77VcJo5JJ1UdMuGziOMV9bWULB9oR096bfNCilPyvvYZ9Ox9BTFi25BD0BS+CvmAhiwSp4gFXggdcCRZwpWKhElwJJnAlWMjqXVcQEypuo0uICQfEhENJmhI7CwNLkn0ng0oYp31bbFCiqP5dXtL/tM/7XH6of+ZwSEzQXOpPa+R3Epvu89yu7d4RE5YtOQR9wYugL1jI6g36aqvtluBK5hauBAtZcKXiAVeCB1wJFku4gphQcRtdQkxYKCYoGTpHTHCiOCcm6M8j9HaihZjwE7vXv+Gr9ngYl60f7SPTnQl6bp2z383hoN0t09/30A4X7YSZ/laHhIl2h40ECpWnO2rmxtnaOcSEZUsOQV/wIugLFrJIkCoecCV4wJVgAVcqFirBlWACV4KFrN51BTGh4ja6hJiwUExQYuak7tgPMU6TLv/pghK+6bVpGTEBMWHqExIF5Hfyo+k1iQASBHRdR4kS9jeda8WJ9rzq6d22bf+sZzrOFsuICcuWHIK+4EXQFyxk9QZ9tdV2S3AlcwtXgoUsuFLxgCvBA64EiyVcUawrXvG6GwQQExaKCd5uLsedfuN7KNlq/zSi3YFwqD5iAmJC6xutWDDnPxYIJFS1Pim/0+9+tDsO9Oc28q+2nuy2j3bsrduICcsWHoK+4EXQFyxkkSBVPOBK8IArwQKuVCxUgivBBK4EC1m96wpiQsVtdAkxYYGYoKTLv30w9785HEq8vKVcCduhOu15xISHLSbIT7xrQEd9SOo99+OdEgp0TbsLWoGg9ace2yKZxuupv5U6iAnLlhyCvuBF0BcsZPUGfbXVdktwJXMLV4KFLLhS8YArwQOuBIslXEFMqLiNLiEmLBAT9M2vHFaCQm/i5iRN7dpviI8lY4gJD1tMkK/MvSUYyDda37Gv3FYE8G8y3Laf9t7ug42YsGzJIegLXgR9wUIWCVLFA64ED7gSLOBKxUIluBJM4EqwkNW7rihmVl1ed4MAYkKnmGBRQAldryigev57dLXvTa6cIE4Tx972970e/5vDF//XkPYJfWC2OxR8fomv+H8M0Y4ZiQd6+88cEBPqB3HvQlZbbbdE0Je5JegLFrLgSsUDrgQPuBIs4ErFQiW4EkzgSrCQ1buuICZU3EaXEBM6xAQLCXLW9sfsjiXtrZCwJNFTn+ckiMfu5b5dQ0yoYoLnT39aIx/UzhifW+or7kP9zL0RE+pHcO9CVlttt0TQl7kl6AsWsuBKxQOuBA+4EizgSsVCJbgSTOBKsJDVu64onlVdXneDAGLCCTGhFRJ6dxe0QkLP/97gxNDHpQmi223liJgwLyb4TxH0oem5tq/0iAD2Ze2Wkd3+zw3uu6cfj72FI3/msGzhIegLXgR9wUJWb9BXW223BFcyt3AlWMiCKxUPuBI84EqwWMIVxISK2+gSYsIRMcHJl5x0lJCgBM0Joo5bSNiWPgNiwryYYH+UGGBM9b87yD917tTveNiv5n48FDHhxdnPXoK+CgtBX/Ag6AsWsuBKxQOuBA+4EizgSsVCJbgSTOBKsJDVu64gJlTcRpcQEw6ICU7cRgsJiAl/vENM+GIxQcm+f39jutvF/8PI9L+GlLggAUFtW7/S7yO0woOu85sJiAk9iw9BX1Ai6AsWsnqDvtpquyW4krmFK8FCFlypeMCV4AFXgsUSriAmVNxGlxATDogJTtx01NbvQ+92q7j/C0g59aH6Oq9vk/3Nso4qt/WdHOro8+q7bbNl+6GLCdP/GtKJvvxqKgTYf3RN79Zffc4/2Chfnfq1+/ZR/rZl35o+G3/msGzJIegLXgR9wUIWCVLFA64ED7gSLOBKxUIluBJM4EqwkNW7rijeVV1ed4MAYsIJMcEJ2aFj+z87tGLCofo67+TOiY3Kx+rrmpJA19/68aGKCcf8R0n+sT+1kR+qvcUC+YzayLfaXQiuZ3+TYKU/e1AdCxFb96/2+RATli08BH3Bi6AvWMjqDfpqq+2W4ErmFq4EC1lwpeIBV4IHXAkWS7iimBYxoWI3soSYcEBMaBMO7D8eKmQ8VDEBPxvrZ8IbMWHZckPQF7wI+oKFLBKkigdcCR5wJVjAlYqFSnAlmMCVYCGrd11BTKi4jS4hJiAmDBUKehJmxITxSXXPvGyxDmLCsiWHoC94EfQFC1m9QV9ttd0SXMncwpVgIQuuVDzgSvCAK8FiCVcQEypuo0uICYgJiAn4wOp8YJRwgZiwbMkh6AteBH3BQhYJUsUDrgQPuBIs4ErFQiW4EkzgSrCQ1buuICZU3EaXEBNIJFeXSLIzgZ0JiAmjl4K+8Qj6ghNBX7CQ1Rv01VbbLcGVzC1cCRay4ErFA64ED7gSLJZwBTGh4ja6hJiAmICYgA+szgcQE0YvBX3jEfQFJ4K+YCGLBKniAVeCB1wJFnClYqESXAkmcCVYyOpdVxATKm6jS4gJJJKrSyTZmcDOBMSE0UtB33gEfcGJoC9YyOoN+mqr7ZbgSuYWrgQLWXCl4gFXggdcCRZLuIKYUHEbXUJMQExATMAHVucDiAmjl4K+8Qj6ghNBX7CQRYJU8YArwQOuBAu4UrFQCa4EE7gSLGT1riuICRW30SXEBBLJ1SWS7ExgZwJiwuiloG88gr7gRNAXLGT1Bn211XZLcCVzC1eChSy4UvGAK8EDrgSLJVxBTKi4jS4hJiAmICbgA6vzAcSE0UtB33gEfcGJoC9YyCJBqnjAleABV4IFXKlYqARXgglcCRayetcVxISK2+gSYgKJ5OoSSXYmsDMBMWH0UtA3HkFfcCLoCxayeoO+2mq7JbiSuYUrwUIWXKl4wJXgAVeCxRKuICZU3EaXEBMQExAT8IHV+QBiwuiloG88gr7gRNAXLGSRIFU84ErwgCvBAq5ULFSCK8EErgQLWb3rCmJCxW10CTGBRHJ1iSQ7E9iZgJgweinoG4+gLzgR9AULWb1BX2213RJcydzClWAhC65UPOBK8IArwWIJVxATKm6jS4gJiAmICfjA6nwAMWH0UtA3HkFfcCLoCxaySJAqHnAleMCVYAFXKhYqwZVgAleChazedQUxoeI2uoSYQCK5ukSSnQnsTEBMGL0U9I1H0BecCPqChazeoK+22m4JrmRu4UqwkAVXKh5wJXjAlWCxhCuICRW30SXEBMQExAR8YHU+gJgweinoG4+gLzgR9AULWSRIFQ+4EjzgSrCAKxULleBKMIErwUJW77qCmFBxG11CTCCRXF0iyc4EdiYgJoxeCvrGI+gLTgR9wUJWb9BXW223BFcyt3AlWMiCKxUPuBI84EqwWMIVxISK2+gSYgJiAmICPrA6H0BMGL0U9I1H0BecCPqChSwSpIoHXAkecCVYwJWKhUpwJZjAlWAhq3ddQUyouI0uISaQSK4ukWRnAjsTEBNGLwV94xH0BSeCvmAhqzfoq622W4IrmVu4EixkwZWKB1wJHnAlWCzhCmJCxW10CTEBMQExAR9YnQ8gJoxeCvrGI+gLTgR9wUIWCVLFA64ED7gSLOBKxUIluBJM4EqwkNW7riAmVNxGlxATSCRXl0iyM4GdCYgJo5eCvvEI+oITQV+wkNUb9NVW2y3BlcwtXAkWsuBKxQOuBA+4EiyWcAUxoeI2uoSYgJiAmIAPrM4HEBNGLwV94xH0BSeCvmAhiwSp4gFXggdcCRZwpWKhElwJJnAlWMjqXVcQEypuo0uICSSSq0sk2ZnAzgTEhNFLQd94BH3BiaAvWMjqDfpqq+2W4ErmFq4EC1lwpeIBV4IHXAkWS7iCmFBxG11CTEBMQEzAB1bnA4gJo5eCvvEI+oITQV+wkEXZyfi3AAAgAElEQVSCVPGAK8EDrgQLuFKxUAmuBBO4Eixk9a4riAkVt9ElxAQSydUlkuxMYGcCYsLopaBvPIK+4ETQFyxk9QZ9tdV2S3AlcwtXgoUsuFLxgCvBA64EiyVcQUyouI0uISYgJiAm4AOr8wHEhNFLQd94BH3BiaAvWMgiQap4wJXgAVeCBVypWKgEV4IJXAkWsnrXFcSEitvoEmICieTqEkl2JrAzYS1iwtve9radFineYIAP4AP4AD6AD+AD+MBYH3jJS15yMjfWnLz//e/fSYzhPR6Dd73rXbtXv/rVs/P0qD2rifq+9/3A7tde+C3eYHBVH/hL7/uB3Stf+ZVXHQM/hsfygV947pdvhIIXXnih/bjb2x/84Ad3TzzxxO7555/n/fzzN1i89a1vBYvnn98988wzN76jI/7x/O7pp5+GK83nhD434Mrjz024UtcPuFLxgCvBA64EC62r4sqTTz65j8kOGQg8YwWeObwPiT5fJCbMNebc3U8gc8Ac4AO384Fnn312do3q3WI323iDJ9mOmkllO2qwkAVXKh5wJXjAlWABVyoWKsGVYAJXgoWs3nVFMfCHP/zh3ec//3ned4DBe97znt3rXve6Onl/UvoiMeG73/2+3XOfeIE3GFzVB55+9/t2X/HkK686Bn4Mj+UDH/v4c0d3JvQuZLOfoBs8SdCXSSXoCxay4ErFA64ED7gSLOBKxUIluBJM4EqwkNW7rkhMUF1ed4PAot9M+NCHn9n983/5Bd5gcFUfkJ+95nVvuOoY+DE8lg/85qc+eyMmaAGfe/UuZHNtt3iOoC+zStAXLGTBlYoHXAkecCVYwJWKhUpwJZjAlWAhq3ddQUyouI0uISYgDKwuaUdMINEfJfYgJixbcgj6ghdBX7CQ1Rv01VbbLcGVzC1cCRay4ErFA64ED7gSLJZwBTGh4ja6hJiAmICYgA+szgcQE0YvBX3jEfQFJ4K+YCGLBKniAVeCB1wJFnClYqESXAkmcCVYyOpdVxATKm6jS4gJJJKrSyTZmcDOBMSE0UtB33gEfcGJoC9YyOoN+mqr7ZbgSuYWrgQLWXCl4gFXggdcCRZLuIKYUHEbXUJMQExATMAHVucDiAmjl4K+8Qj6ghNBX7CQRYJU8YArwQOuBAu4UrFQCa4EE7gSLGT1riuICRW30SXEBBLJ1SWS7ExgZwJiwuiloG88gr7gRNAXLGT1Bn211XZLcCVzC1eChSy4UvGAK8EDrgSLJVxBTKi4jS4hJiAmICbgA6vzAcSE0UtB33gEfcGJoC9YyCJBqnjAleABV4IFXKlYqARXgglcCRayetcVxISK2+gSYgKJ5OoSSXYmsDMBMWH0UtA3HkFfcCLoCxayeoO+2mq7JbiSuYUrwUIWXKl4wJXgAVeCxRKuICZU3EaXEBMQExAT8IHV+QBiwuiloG88gr7gRNAXLGSRIFU84ErwgCvBAq5ULFSCK8EErgQLWb3rCmJCxW10CTGBRHJ1iSQ7E9iZgJgweinoG4+gLzgR9AULWb1BX2213RJcydzClWAhC65UPOBK8IArwWIJVxATKm6jS4gJiAmICfjA6nwAMWH0UtA3HkFfcCLoCxaySJAqHnAleMCVYAFXKhYqwZVgAleChazedQUxoeI2uoSYQCK5ukSSnQnsTEBMGL0U9I1H0BecCPqChazeoK+22m4JrmRu4UqwkAVXKh5wJXjAlWCxhCuICRW30SXEBMQExAR8YHU+gJgweinoG4+gLzgR9AULWSRIFQ+4EjzgSrCAKxULleBKMIErwUJW77qCmFBxG11CTCCRXF0iyc4EdiYgJoxeCvrGI+gLTgR9wUJWb9BXW223BFcyt3AlWMiCKxUPuBI84EqwWMIVxISK2+gSYgJiAmICPrA6H0BMGL0U9I1H0BecCPqChSwSpIoHXAkecCVYwJWKhUpwJZjAlWAhq3ddQUyouI0uISaQSK4ukWRnAjsTEBNGLwV94xH0BSeCvmAhqzfoq622W4IrmVu4EixkwZWKB1wJHnAlWCzhCmJCxW10CTEBMQExAR9YnQ8gJoxeCvrGI+gLTgR9wUIWCVLFA64ED7gSLOBKxUIluBJM4EqwkNW7riAmVNxGlxATSCRXl0iyM4GdCYgJo5eCvvEI+oITQV+wkNUb9NVW2y3BlcwtXAkWsuBKxQOuBA+4EiyWcAUxoeI2uoSYgJiAmIAPrM4HEBNGLwV94xH0BSeCvmAhiwSp4gFXggdcCRZwpWKhElwJJnAlWMjqXVcQEypuo0uICSSSq0sk2ZnAzgTEhNFLQd94BH3BiaAvWMjqDfpqq+2W4ErmFq4EC1lwpeIBV4IHXAkWS7iCmFBxG11CTEBMQEzAB1bnA4gJo5eCvvEI+oITQV+wkEWCVPGAK8EDrgQLuFKxUAmuBBO4Eixk9a4riAkVt9ElxAQSydUlkuxMYGcCYsLopaBvPIK+4ETQFyxk9QZ9tdV2S3AlcwtXgoUsuFLxgCvBA64EiyVcQUyouI0uISYgJiAm4AOr8wHEhNFLQd94BH3BiaAvWMgiQap4wJXgAVeCBVypWKgEV4IJXAkWsnrXFcSEitvoEmICieTqEkl2JrAzATFh9FLQNx5BX3Ai6AsWsnqDvtpquyW4krmFK8FCFlypeMCV4AFXgsUSriAmVNxGlxATEBMQE/CB1fkAYsLopaBvPIK+4ETQFyxkkSBVPOBK8IArwQKuVCxUgivBBK4EC1m96wpiQsVtdAkxgURydYkkOxPYmYCYMHop6BuPoC84EfQFC1m9QV9ttd0SXMncwpVgIQuuVDzgSvCAK8FiCVcQEypuo0uICYgJiAkb94HXv+Grd/qg/ce//unVzfUo0eDQOL/5qc/eYKMFfO5F0FdRIegLHgR9wUIWXKl4wJXgAVeCBVypWKgEV4IJXAkWsnrXFcSEitvoEmLCxhPJQ0nUms+zM+GyOxP0Iav3P/qV30BMmPAdMWHZkkPQF7wI+oKFrN6gr7babgmuZG7hSrCQBVcqHnAleMCVYLGEK4gJFbfRJcSESXIxl2R/6jOf2/3Qj/74TUL2lm//zqMJ2T/93d+7qfvnvv4bb+rLwWX/2DM/uVM/c/3rmhO+uaO+WZ5rt9VziAlf2P2djz+3e9df/N7dy17+ir1vqHyOIGCfOqftVn3Mz4WYsGzJIegLXgR9wUIWCVLFA64ED7gSLOBKxUIluBJM4EqwkNW7rijOVV1ed4MAYsIJMUEJmLeJy1mPiQk//w9/ZZ/4qY3qtm0lKjiJaY+qp751Xfb0/d7v/8HZdm0fW7Ifspggwcn+IJ+wH7Xi1FJ/UD96IyZ88Y4PxIRlCw9BX/Ai6AsWsnqDvtpquyW4krmFK8FCFlypeMCV4AFXgsUSrijGRUyo2I0sISYcERPaHQNO8HQ8lLj/rZ/+2ZtEcPq36W0/qjNt775J9h4new9ZTLBooB0JU3/QrhftTlgqDCAmfLGIYA4iJixbbgj6ghdBX7CQRYJU8YArwQOuBAu4UrFQCa4EE7gSLGT1riuICRW30SXEhANighI5OaeSO9kuHxMTnKDMHb1DYa49YkJN9h6qmGDRSULCVJBqfUqC1LHrbV3ZiAnVv1p8EBOWLTkEfcGLoC9YyOoN+mqr7ZbgSuYWrgQLWXCl4gFXggdcCRZLuIKYUHEbXUJMOCAm6FtgJXdOPG4rJlgwQEw4nNgZ64cqJlhw0u9zGIveo/48Qv7qPiRIqB+dPyQm2Cc1hgQK/z7D0j+j6L3HNdZDTFi25BD0BS+CvmAhiwSp4gFXggdcCRZwpWKhElwJJnAlWMjqXVcQEypuo0uICQfEhGnic1sxwdvX5xI1J3UaYzruQyw/RDFBOw2c9C/ZdSD/kGBg/1If8ieXfdT5qX/Z77wjwr/PoPMPxe8QE5YtOQR9wYugL1jI6g36aqvtluBK5hauBAtZcKXiAVeCB1wJFku4gphQcRtdQkwYICZol4MTRf1I4zRRc1KnxE+230ry1HZaf+vlhygmaGeAfWTp/LZiQOsv8jXvNjgmJujanMi19D7uY33EhGVLDkFf8CLoCxaySJAqHnAleMCVYAFXKhYqwZVgAleChazedUVxrOryuhsEEBMGiAn+0TyJBXMJl//bSSeT06OSxbl2Wz33EMUECwKHfOTYXFsw0H8nOa3X7ng4tDPhIe1EmOKDmLBs4SHoC14EfcFCVm/QV1tttwRXMrdwJVjIgisVD7gSPOBKsFjCFcSEitvoEmLClcUEJXgWBw5tX9c29ek1JX4WIdR+bkfDNDHaSvkhiwlLE/tWLDg0//a/Q2LC9PyhfrZ4HjFh2ZJD0Be8CPqChSwSpIoHXAkecCVYwJWKhUpwJZjAlWAhq3ddQUyouI0uISZcUUxQonfsW+Oe5EzJpUiyNMns6XutdR6ymKC5XjIvEgIsFhxq5+tT0cC+NT1/qJ8tnkdMWLbkEPQFL4K+YCGrN+irrbZbgiuZW7gSLGTBlYoHXAkecCVYLOGK4lzxitfdIICYcCUxoRUSbvNnCt7+LlFii8nc3DM9RDGhFQXa3z2Yw6c917Zrz7c2YsLh/0EEMWHZwkPQF7wI+oKFLBKkigdcCR5wJVjAlYqFSnAlmMCVYCGrd11BTKi4jS4hJlxBTGiFhNv+sJ3FBP3Sfpsgbtl+iGJC+1846scYe+cXMeGwUNCDIWLCsiWHoC94EfQFC1m9QV9ttd0SXMncwpVgIQuuVDzgSvCAK8FiCVcQEypuo0uICRcWEy4pJCgZ8lb024oSPYnVWuo8RDFB2GuO9YGoXSgSFw7Nh36Ho/3TBO88mPtdDfmjr7dt1Ld9a3r+0LhbPI+YsGzJIegLXgR9wUIWCVLFA64ED7gSLOBKxUIluBJM4EqwkNW7riAmVNxGlxATLigmnCMk6Fto/dDidGu7kkknlyKJ+t5iMjf3TA9VTJAP+Dc29L86TJN8XfePcrb/c4P9RG1aEaL3v4acjjM3J1s9h5iwbMkh6AteBH3BQlZv0FdbbbcEVzK3cCVYyIIrFQ+4EjzgSrBYwhXEhIrb6BJiwgExQYmbvrn1W4manFXJns/p2IoATvRUr60ztdtvkCUmqL7e+lMG1/U5jdcmjltN6trneqhigjCQaCQ/8PzP+cR0l0orQtg/3Yf81r47FQ3kaxpner6di63biAnLlhyCvuBF0BcsZJEgVTzgSvCAK8ECrlQsVIIrwQSuBAtZveuKYlnV5XU3CCAmHBAT2u3hTuzmju2OgVZMmKvrc9O/iZdYoLb+Vlr1lAD+0I/+eBErtp7Y+fkespggDLS7QD7iZF/+IN+QjxxK/CUoSGSwD0lM8A9/2i9bX9U47n963vPwEI6ICcsWHoK+4EXQFyxk9QZ9tdV2S3AlcwtXgoUsuFLxgCvBA64EiyVcUZyMmFCxG1lCTDggJjyERGqtz/jQxYS1zssW7wsxYdlyQ9AXvAj6goUsEqSKB1wJHnAlWMCVioVKcCWYwJVgIat3XUFMqLiNLiEmICas7rcYEBNu9z8UbDHpv9YzISYsW3II+oIXQV+wkNUb9NVW2y3BlcwtXAkWsuBKxQOuBA+4EiyWcAUxoeI2uoSYgJiAmIAPrM4HriUeTPtFTFi25BD0BS+CvmAhiwSp4gFXggdcCRZwpWKhElwJJnAlWMjqXVcQEypuo0uICSSSq0sk2ZnAzoRp0n+tMmLCsiWHoC94EfQFC1m9QV9ttd0SXMncwpVgIQuuVDzgSvCAK8FiCVcQEypuo0uICYgJiAn4wOp84FriwbRfxIRlSw5BX/Ai6AsWskiQKh5wJXjAlWABVyoWKsGVYAJXgoWs3nUFMaHiNrqEmEAiubpEkp0J7EyYJv3XKiMmLFtyCPqCF0FfsJDVG/TVVtstwZXMLVwJFrLgSsUDrgQPuBIslnAFMaHiNrqEmICYgJiAD6zOB64lHkz7RUxYtuQQ9AUvgr5gIYsEqeIBV4IHXAkWcKVioRJcCSZwJVjI6l1XEBMqbqNLiAkkkqtLJNmZwM6EadJ/rTJiwrIlh6AveBH0BQtZvUFfbbXdElzJ3MKVYCELrlQ84ErwgCvBYglXEBMqbqNLiAmICYgJ+MDqfOBa4sG0X8SEZUsOQV/wIugLFrJIkCoecCV4wJVgAVcqFirBlWACV4KFrN51BTGh4ja6hJhAIrm6RJKdCexMmCb91yojJixbcgj6ghdBX7CQ1Rv01VbbLcGVzC1cCRay4ErFA64ED7gSLJZwBTGh4ja6hJiAmICYgA+szgeuJR5M+0VMWLbkEPQFL4K+YCGLBKniAVeCB1wJFnClYqESXAkmcCVYyOpdVxATKm6jS4gJJJKrSyTZmcDOhGnSf60yYsKyJYegL3gR9AULWb1BX2213RJcydzClWAhC65UPOBK8IArwWIJVxATKm6jS4gJiAmICfjA6nzgWuLBtF/EhGVLDkFf8CLoCxaySJAqHnAleMCVYAFXKhYqwZVgAleChazedQUxoeI2uoSYQCK5ukSSnQnsTJgm/dcqIyYsW3II+oIXQV+wkNUb9NVW2y3BlcwtXAkWsuBKxQOuBA+4EiyWcAUxoeI2uoSYgJiAmIAPrM4HriUeTPtFTFi25BD0BS+CvmAhiwSp4gFXggdcCRZwpWKhElwJJnAlWMjqXVcQEypuo0uICSSSq0sk2ZnAzoRp0n+tMmLCsiWHoC94EfQFC1m9QV9ttd0SXMncwpVgIQuuVDzgSvCAK8FiCVcQEypuo0uICYgJiAn4wOp84FriwbRfxIRlSw5BX/Ai6AsWskiQKh5wJXjAlWABVyoWKsGVYAJXgoWs3nUFMaHiNrqEmEAiubpEkp0J7EyYJv3XKiMmLFtyCPqCF0FfsJDVG/TVVtstwZXMLVwJFrLgSsUDrgQPuBIslnAFMaHiNrqEmICYgJiAD6zOB64lHkz7RUxYtuQQ9AUvgr5gIYsEqeIBV4IHXAkWcKVioRJcCSZwJVjI6l1XEBMqbqNLiAkkkqtLJNmZwM6EadJ/rTJiwrIlh6AveBH0BQtZvUFfbbXdElzJ3MKVYCELrlQ84ErwgCvBYglXEBMqbqNLiAmICYgJ+MDqfOBa4sG0X8SEZUsOQV/wIugLFrJIkCoecCV4wJVgAVcqFirBlWACV4KFrN51BTGh4ja6hJhAIrm6RJKdCexMmCb91yojJixbcgj6ghdBX7CQ1Rv01VbbLcGVzC1cCRay4ErFA64ED7gSLJZwBTGh4ja6hJiAmICYgA+szgeuJR5M+0VMWLbkEPQFL4K+YCGLBKniAVeCB1wJFnClYqESXAkmcCVYyOpdVxATKm6jS4gJJJKrSyTZmcDOhGnSf63yKTHhgx/84O6JJ57YPf/887yff/4Gi7e+9a1g8fzzu2eeeWanAEZH/OP53dNPPw1Xms8JfW7Alcefm3Clrh9wpeIBV4IHXAkWWlfFlSeffPJkboyYcBKiq1ZATEBMQEzAB1bnA9cSD6b9nhIT3va2t90kjFqoeIMBPoAP4AP4AD6AD+AD43zgJS95yclEWPPxile84maXi3a68B6LwZd/+ZfvXvrSl87O06P2rCZK3xhPg3HKfIt8aR9gZwI+dWmfOtTfKTFB3xK87nWv233+85/n/fnP32Dxnve8Byw+//ndJz/5yRuBSUf84/O7D3/4w3Cl+ZzQ5wZcefy5CVfq+gFXKh5wJXjAlWChddVcafPROVs56pvf/OadviHnPR6Dr/3ar929/OUvn5ua3ReJCd/97vftnvvEC7zB4Ko+8PS737f7iidfedUx8GN4LB/42Mefu0kIX3jhhdkPwd6/15ttvMGT/G1rJpW/bQ0WsuBKxQOuBA+4EizgSsVCJbgSTOBKsJDVu65ITFBdXneDwKI/c9Bk8QYDfAAf2JoPPPvss7OfwL0L2WzjDZ4k6MukEvQFC1lwpeIBV4IHXAkWcKVioRJcCSZwJVjI6l1XFJMiJlTsRpYWiQk//CN/bfeZz/4BbzC4qg/Iz179mtdedQz8GB7LB174jd+5EUh/67d+a/Zzt3chm228wZMEfZlUgr5gIQuuVDzgSvCAK8ECrlQsVIIrwQSuBAtZvesKYkLFbXRpkZjwN575id0ffuGPeYPBVX1Afvb6N3zVVcfAj+GxfECCghYhLeBzr96FbK7tFs8R9GVWCfqChSy4UvGAK8EDrgQLuFKxUAmuBBO4Eixk9a4riAkVt9ElxASEgdUl7YgJJPqjxB7EhGVLDkFf8CLoCxayeoO+2mq7JbiSuYUrwUIWXKl4wJXgAVeCxRKuICZU3EaXEBMQExAT8IHV+QBiwuiloG88gr7gRNAXLGSRIFU84ErwgCvBAq5ULFSCK8EErgQLWb3rCmJCxW10CTGBRHJ1iSQ7E9iZgJgweinoG4+gLzgR9AULWb1BX2213RJcydzClWAhC65UPOBK8IArwWIJVxATKm6jS4gJiAmICfjA6nwAMWH0UtA3HkFfcCLoCxaySJAqHnAleMCVYAFXKhYqwZVgAleChazedQUxoeI2uoSYQCK5ukSSnQnsTEBMGL0U9I1H0BecCPqChazeoK+22m4JrmRu4UqwkAVXKh5wJXjAlWCxhCuICRW30SXEBMQExAR8YHU+gJgweinoG4+gLzgR9AULWSRIFQ+4EjzgSrCAKxULleBKMIErwUJW77qCmFBxG11CTCCRXF0iyc4EdiYgJoxeCvrGI+gLTgR9wUJWb9BXW223BFcyt3AlWMiCKxUPuBI84EqwWMIVxISK2+gSYgJiAmICPrA6H0BMGL0U9I1H0BecCPqChSwSpIoHXAkecCVYwJWKhUpwJZjAlWAhq3ddQUyouI0uISaQSK4ukWRnAjsTEBNGLwV94xH0BSeCvmAhqzfoq622W4IrmVu4EixkwZWKB1wJHnAlWCzhCmJCxW10CTEBMQExAR9YnQ8gJoxeCvrGI+gLTgR9wUIWCVLFA64ED7gSLOBKxUIluBJM4EqwkNW7riAmVNxGlxATSCRXl0iyM4GdCYgJo5eCvvEI+oITQV+wkNUb9NVW2y3BlcwtXAkWsuBKxQOuBA+4EiyWcAUxoeI2uoSYgJiAmIAPrM4HEBNGLwV94xH0BSeCvmAhiwSp4gFXggdcCRZwpWKhElwJJnAlWMjqXVcQEypuo0uICSSSq0sk2ZnAzgTEhNFLQd94BH3BiaAvWMjqDfpqq+2W4ErmFq4EC1lwpeIBV4IHXAkWS7iCmFBxG11CTEBMQEzAB1bnA4gJo5eCvvEI+oITQV+wkEWCVPGAK8EDrgQLuFKxUAmuBBO4Eixk9a4riAkVt9ElxAQSydUlkuxMYGcCYsLopaBvPIK+4ETQFyxk9QZ9tdV2S3AlcwtXgoUsuFLxgCvBA64EiyVcQUyouI0uISYgJiAm4AOr8wHEhNFLQd94BH3BiaAvWMgiQap4wJXgAVeCBVypWKgEV4IJXAkWsnrXFcSEitvoEmICieTqEkl2JrAzATFh9FLQNx5BX3Ai6AsWsnqDvtpquyW4krmFK8FCFlypeMCV4AFXgsUSriAmVNxGlxATEBMQE/CB1fkAYsLopaBvPIK+4ETQFyxkkSBVPOBK8IArwQKuVCxUgivBBK4EC1m96wpiQsVtdAkxgURydYkkOxPYmYCYMHop6BuPoC84EfQFC1m9QV9ttd0SXMncwpVgIQuuVDzgSvCAK8FiCVcQEypuo0uICYgJiAn4wOp8ADFh9FLQNx5BX3Ai6AsWskiQKh5wJXjAlWABVyoWKsGVYAJXgoWs3nUFMaHiNrqEmEAiubpEkp0J7ExATBi9FPSNR9AXnAj6goWs3qCvttpuCa5kbuFKsJAFVyoecCV4wJVgsYQriAkVt9ElxATEBMQEfGB1PoCYMHop6BuPoC84EfQFC1kkSBUPuBI84EqwgCsVC5XgSjCBK8FCVu+6gphQcRtdQkwgkVxdIsnOBHYmICaMXgr6xiPoC04EfcFCVm/QV1tttwRXMrdwJVjIgisVD7gSPOBKsFjCFcSEitvoEmICYgJiAj6wOh9ATBi9FPSNR9AXnAj6goUsEqSKB1wJHnAlWMCVioVKcCWYwJVgIat3XUFMqLiNLiEmkEiuLpFkZwI7ExATRi8FfeMR9AUngr5gIas36KuttluCK5lbuBIsZMGVigdcCR5wJVgs4QpiQsVtdAkxATEBMeGB+MA7vvO7dvrAffHT/2x1cz5KPJiO85nP/sFjTF58cfazl6CvwvL/t3fGsJZdVxmOxEieYsi8xvHIGqwkcoeQHEpk4YJiRnIkW5bFJMKShwghoBlIwVTgFKQJUkYIuUhhrKSgMEWKETgukJBdoigyBYIiuKKmpLzof8Oe/6wz59y39ntz1zuz7/ekq7vWvXffM/Od/d+91v/2uY+izzwo+sxCEVqJPNCKeaAVs0ArkYUytGImaMUsFGXXFcyEyK06w0w4kkZy3kRtOWdnwsV2Jvzog5/s/vJ739/95y//O5gGzUx4+PE/h8e3PBcO/W/DTOhbcij6zIuizywUZYu+OGrcDK343KIVs1CEViIPtGIeaMUserSCmRC5VWeYCR1mwptvvX36W0xN2r/+4d8uNmT/+ot/3/3pd/9898o3fvPxaxUvNXetUdJzes+121e/9vXFY7Xxo90fu5nQ5oHm0tq51fzT6zQn569p4zWvps9hJjxp0mAm9C05FH3mRdFnFopokCIPtGIeaMUs0EpkoQytmAlaMQtF2XVFda9ey8/lEMBMSJoJ+m1va9J0P2/U1LT9/Uc/ffwaGQBq3nTfxslUmDZ3LW5Nnp5XPL/d/c4fLo5r40e7x0x4ZCzt20HQDCjNlfn5b3NO83H6XJtn+953+vpjiDET+hYeij7zougzC0XZoi+OGjdDKz63aMUsFKGVyAOtmAdaMYserWAmRG7VGWZCwkzQdvGTkzQoABEAACAASURBVJPTm3YdrJkJ+m2xGrb5Nemt8dO4pR0NNHnxN8aYCRczE9ZMAOZZnGfihJnQt+RQ9JkXRZ9ZKKJBijzQinmgFbNAK5GFMrRiJmjFLBRl1xXMhMitOsNMSJgJ7fKGdi36mpmw1sTp8fbbYjV089fR5MUmDzMBM2GukUPlmAl9Sw5Fn3lR9JmFomzRF0eNm6EVn1u0YhaK0ErkgVbMA62YRY9WMBMit+oMM+EMM0FbwjVJmwnQdhksXeawr+FphkF7n+lr23NsP39kKmAmXMxMaPNpvkOmPT6fZ9NLeOZf2jidpyPGmAl9Sw5Fn3lR9JmFIhqkyAOtmAdaMQu0ElkoQytmglbMQlF2XcFMiNyqM8yEPWaCGqu2o6B9Gd55zYT2hYxL33+w1uSN2Lxl/k+YCU/HTJibBkvzbGokKM6cn5Feg5nQt+RQ9JkXRZ9ZKMoWfXHUuBla8blFK2ahCK1EHmjFPNCKWfRoBTMhcqvOMBP2mAlLxsHSY2c1VzIiNNF1m38pnsa2Jm/+BYw6VjMxzjrGSM9jJtSYCcduJEgzmAl9Sw5Fn3lR9JmFIhqkyAOtmAdaMQu0ElkoQytmglbMQlF2XcFMiNyqM8yEFTNBW8Q1Oed/geE8ZkL7zoX5ezUDoH2pYzMc5vc6ZnvtMdxjJjwyE+bmkkyndms7ZpTP50Qzp/btTGjzW18sOr8cYv5+I+eYCX1LDkWfeVH0mYWibNEXR42boRWfW7RiForQSuSBVswDrZhFj1YwEyK36gwzYcVMUCOnyTlvyHrNhOlvf9eaNl1OMX9Ox20mhP4dSzsaRm3yMBMemQlzU2kpP4+ZoL8o0v46yXzejTqn1v5fmAl9Sw5Fn3lR9JmFIhqkyAOtmAdaMQu0ElkoQytmglbMQlF2XVF9rNfyczkEMBMWzAQ1W5qY2jEwb0J6zAQ1amra9F7nvR69/ZZ5qWmc/9tGyTETDnuZQzPKtLvh2L5wca4RzIS+hYeiz7wo+sxCUbboi6PGzdCKzy1aMQtFaCXyQCvmgVbMokcrmAmRW3WGmbBgJrRma2mbedterns1+EtfqKiGZWokXOQyhWZeyJSYN0Kj5pgJhzUTtMulzfFjMqmW9IKZ0LfkUPSZF0WfWSiiQYo80Ip5oBWzQCuRhTK0YiZoxSwUZdcVzITIrTrDTFgwE5phoMl51k2vnTcpUyNhzWyYj1nLm5mwdJy1Mc/645gJhzUTdAmNvtiz7Zq5iNn1rM81zIS+JYeiz7wo+sxCUbboi6PGzdCKzy1aMQtFaCXyQCvmgVbMokcrmAmRW3WGmbBgJuxrkFpzv9aAPU0jQf+OdpnDRU2Jff+nrT2HmXB4M0HnXDsUmll2TN/JMZ3vmAl9Sw5Fn3lR9JmFIhqkyAOtmAdaMQu0ElkoQytmglbMQlF2XcFMiNyqM8yEp2gmnMdI0Pcz6IsW538CUteyy0BozZ7ee9oEjRxjJtSYCZpDzRzTLoX5HBx5jrX/G2ZC35JD0WdeFH1moShb9MVR42ZoxecWrZiFIrQSeaAV80ArZtGjFcyEyK06w0x4imbC9K8vaEfB2m36W+D2ZY8SQvsehrYbQY+pyTvvlze2hulZu8dMqDMTNDfafNP3KBzbFzJiJvQtORR95kXRZxaKaJAiD7RiHmjFLNBKZKEMrZgJWjELRdl1BTMhcqvOMBM6zYTW/C9d5jA1EzSx1256j2mDL7NAY9s17Bqnxk5/TeIYf1uMmfBo7uzbjdLmoebNdC5NzYH5nzVtpsH8fWUgtC9knM/N+XuPlmMm9C05FH3mRdFnFoqyRV8cNW6GVnxu0YpZKEIrkQdaMQ+0YhY9WsFMiNyqM8yETjNhtGZqi/+fYzcTLnpOmmkwNxMu+r4jjsdM6FtyKPrMi6LPLBTRIEUeaMU80IpZoJXIQhlaMRO0YhaKsusKZkLkVp1hJmAmPPGb7ctuGjET/vdC56T9NRLMhLM5Yib0LTkUfeZF0WcWirJFXxw1boZWfG7RilkoQiuRB1oxD7RiFj1awUyI3KozzATMhAs1rocwHjATzm6C17jrEgZ9qOp2bN9/sMZk3+OYCX1LDkWfeVH0mYUiGqTIA62YB1oxC7QSWShDK2aCVsxCUXZdwUyI3KozzATMBMyEAeaAvndDlze07904pj8lus8sOOs5zIS+JYeiz7wo+sxCUbboi6PGzdCKzy1aMQtFaCXyQCvmgVbMokcrmAmRW3WGmTBAI3lWw/SsPc/OhP6dCe0LGfWBKiOBXQk5hpgJfUsORZ95UfSZhSIapMgDrZgHWjELtBJZKEMrZoJWzEJRdl3BTIjcqjPMBMwEdiYwBzY3B6oMMMyEviWHos+8KPrMQlG26Iujxs3Qis8tWjELRWgl8kAr5oFWzKJHK5gJkVt1hplAI7m5RpKdCbnfqlc13CMfBzOhb8mh6DMvij6zUESDFHmgFfNAK2aBViILZWjFTNCKWSjKriuYCZFbdYaZgJmAmcAc2NwcqDIwMBP6lhyKPvOi6DMLRdmiL44aN0MrPrdoxSwUoZXIA62YB1oxix6tYCZEbtUZZgKN5OYaSXYmsDMBM6F6Kcgdj6LPnCj6zEIRDVLkgVbMA62YBVqJLJShFTNBK2ahKLuuYCZEbtUZZgJmAmYCc2BzcwAzoXopyB2Pos+cKPrMQlG26Iujxs3Qis8tWjELRWgl8kAr5oFWzKJHK5gJkVt1hplAI7m5RpKdCexMwEyoXgpyx6PoMyeKPrNQRIMUeaAV80ArZoFWIgtlaMVM0IpZKMquK5gJkVt1hpmAmYCZwBzY3BzATKheCnLHo+gzJ4o+s1CULfriqHEztOJzi1bMQhFaiTzQinmgFbPo0QpmQuRWnWEm0EhurpFkZwI7EzATqpeC3PEo+syJos8sFNEgRR5oxTzQilmglchCGVoxE7RiFoqy6wpmQuRWnWEmYCZgJjAHNjcHMBOql4Lc8Sj6zImizywUZYu+OGrcDK343KIVs1CEViIPtGIeaMUserSCmRC5VWeYCTSSm2sk2ZnAzgTMhOqlIHc8ij5zougzC0U0SJEHWjEPtGIWaCWyUIZWzAStmIWi7LqCmRC5VWeYCZgJmAnMgc3NAcyE6qUgdzyKPnOi6DMLRdmiL44aN0MrPrdoxSwUoZXIA62YB1oxix6tYCZEbtUZZgKN5OYaSXYmsDMBM6F6Kcgdj6LPnCj6zEIRDVLkgVbMA62YBVqJLJShFTNBK2ahKLuuYCZEbtUZZgJmAmYCc2BzcwAzoXopyB2Pos+cKPrMQlG26Iujxs3Qis8tWjELRWgl8kAr5oFWzKJHK5gJkVt1hplAI7m5RpKdCexMwEyoXgpyx6PoMyeKPrNQRIMUeaAV80ArZoFWIgtlaMVM0IpZKMquK5gJkVt1hpmAmYCZwBzY3BzATKheCnLHo+gzJ4o+s1CULfriqHEztOJzi1bMQhFaiTzQinmgFbPo0QpmQuRWnWEm0EhurpFkZwI7EzATqpeC3PEo+syJos8sFNEgRR5oxTzQilmglchCGVoxE7RiFoqy6wpmQuRWnWEmYCZgJjAHNjcHMBOql4Lc8Sj6zImizywUZYu+OGrcDK343KIVs1CEViIPtGIeaMUserSCmRC5VWeYCTSSm2sk2ZnAzoStmAl37tzZXbt2bacPSm53T1m8/PLLsLh7d3f79u2dChjdMzfu7l555RW0Mvmc0OcGWnn0uYlW4vqBViIPtGIeaMUstK5KK9evXz+zN9Za/MYbb+w+/PBDbpfA4NVXX909//zzi+fpS9NHdaLU5FUV+RzneBtKzITjPffVuv/55/9x2hDqtwFLP7du3dpduXLldBumfnty7DexUOF37Bz0/79x48bp3NE9PL66Ozk5QSuTzwi04s9LtGIW+qxAK5EHWjEPtGIWTStXr15dKs/CY+pRuV0uA+l46QczgV0Ll2IeYSZgJlSZCmeZCWxHjUuDFnf9toCf3Y7tqHEWoJXIA62YB1oxC0VoJfJAK+aBVsyiRysyEu7du7f74osvuF0Cg7fffnt38+bNePL+P8NMwEzATGAOXMocwExY/Ey+9Acp+nwKKPrMQhENUuSBVswDrZgFWokslKEVM0ErZqEou67ITNBr+bkcAvolk3S89POEmXDn2+/sfvrwE24wOOgc+Na339l95SsvHPQYzGN0rDnwow9+cro17uHDh0ufgemFbHHwgA9S9PmkUvSZhaJs0RdHjZuhFZ9btGIWitBK5IFWzAOtmEWPVjATIrfqrMtM4HqUy70eBf7wZw4cZg48ePBg8bOXoi9ioegzD4o+s1CEViIPtGIeaMUs0EpkoQytmAlaMQtF2XUFMyFyq866zIR3fv+Pdj/79HNuMDjoHNA8e+HGiwc9BvMYHWsO/Pijj093JnzyySeLn73ZhWxx8IAPUvT5pFL0mYUitBJ5oBXzQCtmgVYiC2VoxUzQilkoyq4rmAmRW3XWZSb88b37u3/7r//hBoODzgHNsxdvvnTQYzCP0bHmgAwFLUJawJd+sgvZ0tgRH6Po81ml6DMLRWgl8kAr5oFWzAKtRBbK0IqZoBWzUJRdVzATIrfqDDMBY2BzTTtmAo1+ldmDmdC35FD0mRdFn1koyhZ9cdS4GVrxuUUrZqEIrUQeaMU80IpZ9GgFMyFyq84wEzATMBOYA5ubA5gJ1UtB7ngUfeZE0WcWimiQIg+0Yh5oxSzQSmShDK2YCVoxC0XZdQUzIXKrzjATaCQ310iyM4GdCZgJ1UtB7ngUfeZE0WcWirJFXxw1boZWfG7RilkoQiuRB1oxD7RiFj1awUyI3KozzATMBMwE5sDm5gBmQvVSkDseRZ85UfSZhSIapMgDrZgHWjELtBJZKEMrZoJWzEJRdl3BTIjcqjPMBBrJzTWS7ExgZwJmQvVSkDseRZ85UfSZhaJs0RdHjZuhFZ9btGIWitBK5IFWzAOtmEWPVjATIrfqDDMBMwEzgTmwuTmAmVC9FOSOR9FnThR9ZqGIBinyQCvmgVbMAq1EFsrQipmgFbNQlF1XMBMit+oMM4FGcnONJDsT2JmAmVC9FOSOR9FnThR9ZqEoW/TFUeNmaMXnFq2YhSK0EnmgFfNAK2bRoxXMhMitOsNMwEzATGAObG4OYCZULwW541H0mRNFn1kookGKPNCKeaAVs0ArkYUytGImaMUsFGXXFcyEyK06w0ygkdxcI8nOBHYmYCZULwW541H0mRNFn1koyhZ9cdS4GVrxuUUrZqEIrUQeaMU80IpZ9GgFMyFyq84wEzATMBOYA5ubA5gJ1UtB7ngUfeZE0WcWimiQIg+0Yh5oxSzQSmShDK2YCVoxC0XZdQUzIXKrzjATaCQ310iyM4GdCZgJ1UtB7ngUfeZE0WcWirJFXxw1boZWfG7RilkoQiuRB1oxD7RiFj1awUyI3KozzATMBMwE5sDm5gBmQvVSkDseRZ85UfSZhSIapMgDrZgHWjELtBJZKEMrZoJWzEJRdl3BTIjcqjPMBBrJzTWS7ExgZwJmQvVSkDseRZ85UfSZhaJs0RdHjZuhFZ9btGIWitBK5IFWzAOtmEWPVjATIrfqDDMBMwEzgTmwuTmAmVC9FOSOR9FnThR9ZqGIBinyQCvmgVbMAq1EFsrQipmgFbNQlF1XMBMit+oMM4FGcnONJDsT2JmAmVC9FOSOR9FnThR9ZqEoW/TFUeNmaMXnFq2YhSK0EnmgFfNAK2bRoxXMhMitOsNMwEzATGAObG4OYCZULwW541H0mRNFn1kookGKPNCKeaAVs0ArkYUytGImaMUsFGXXFcyEyK06w0ygkdxcI8nOBHYmYCZULwW541H0mRNFn1koyhZ9cdS4GVrxuUUrZqEIrUQeaMU80IpZ9GgFMyFyq84wEzATMBOYA5ubA5gJ1UtB7ngUfeZE0WcWimiQIg+0Yh5oxSzQSmShDK2YCVoxC0XZdQUzIXKrzjATaCQ310iyM4GdCZgJ1UtB7ngUfeZE0WcWirJFXxw1boZWfG7RilkoQiuRB1oxD7RiFj1awUyI3KozzATMBMwE5sDm5gBmQvVSkDseRZ85UfSZhSIapMgDrZgHWjELtBJZKEMrZoJWzEJRdl3BTIjcqjPMBBrJzTWS7ExgZwJmQvVSkDseRZ85UfSZhaJs0RdHjZuhFZ9btGIWitBK5IFWzAOtmEWPVjATIrfqDDMBMwEzgTmwuTmAmVC9FOSOR9FnThR9ZqGIBinyQCvmgVbMAq1EFsrQipmgFbNQlF1XMBMit+oMM4FGcnONJDsT2JmAmVC9FOSOR9FnThR9ZqEoW/TFUeNmaMXnFq2YhSK0EnmgFfNAK2bRoxXMhMitOsNMwEzATGAObG4OYCZULwW541H0mRNFn1kookGKPNCKeaAVs0ArkYUytGImaMUsFGXXFcyEyK06w0xYaSR//NHHO03Ofbd/+pdfLDZhP/ibD3a/9du/E8Yq1+NrTZLe63d/7zu7L18/eTzu13/jG3vHrL3Xs/74sexMaHNk37x41s/l1v/9P/v081O9aQFf+skuZEtjR3yMos9nlaLPLBShlcgDrZgHWjELtBJZKEMrZoJWzEJRdl3BTIjcqjPMhBUz4c/uf++0yfi1l752agyo8ZvfPv35L58wB25/861gBmiM3qOZEn/wJ999YoyayfZ8O95ZY7bepF3k33dsZoLm2kV4Mfb8l4VgJvQtORR95kXRZxaKskVfHDVuhlZ8btGKWShCK5EHWjEPtGIWPVrBTIjcqjPMhDPMhJ5Gr5kC2l3wD//4WWgQmzmhCT/d0aC47UaYGw3t/TRGOyWOpWnETDh/c3wsc+Rp/T8xE/qWHIo+86LoMwtFNEiRB1oxD7RiFmglslCGVswErZiFouy6gpkQuVVnmAlP0UzQZQqa0HNToDU+em5uDPzFX/3w9DFd0tBeN71vW+H13tPHR44xEzATquY3ZkLfkkPRZ14UfWahKFv0xVHjZmjF5xatmIUitBJ5oBXzQCtm0aMVzITIrTrDTHiKZoJMBE3otca/mQnTXQvtsoi1HRBtd4Iue6hqsC77OJgJT5oJmjsylnRuZEC1y2C0q0XzrV1yo7nV5lQbM51v03PbntdjmmcytNoc1XtOd9BMx40UYyb0LTkUfeZF0WcWimiQIg+0Yh5oxSzQSmShDK2YCVoxC0XZdUW1q17Lz+UQwEx4imbC9Esb1ZxNmy41Z9PmrT3Xdh6smQnT92xjRr/HTFg2E9Tst/nSvlujNf96vBlPMhiUt8tndL9kDGjsvvfUuGZSjDrnMBP6Fh6KPvOi6DMLRdmiL44aN0MrPrdoxSwUoZXIA62YB1oxix6tYCZEbtUZZsIZZkJr2tSc6abdB/u+v6A1dJrYMhD0Wo1Trvt5c9ZMBv02ealhUxOosbotPT/iY5gJy2ZCmwfamdDO+/t/99Hj+aHnZQ60Oab7tttA86yNafft/XQ/fc/p93hMH2/jRrrHTOhbcij6zIuizywU0SBFHmjFPNCKWaCVyEIZWjETtGIWirLriupYvZafyyGAmbBiJsybtGnjpVjNf2va5s2VDIS2Db2NW9t5MDUf5rsZ9P7TL26cH2fUHDNh3UyYzxHNgWYYTI2ENjfa/JKR1R5r921uLr1nu2RnaVwbP8I9ZkLfwkPRZ14UfWahKFv0xVHjZmjF5xatmIUitBJ5oBXzQCtm0aMV1bOYCZFdZYaZsGImqFGa70DQtefT5n7pixZlALTdBtom3ho9TXQ9vmRAtJ0Lek3bCTEd15q+EZq3zP8BM2HdTFji1+bPkmGlObw2f9Yeb3Nfz2MmvHf6W5PKD+UtH4uiz2eHos8sFNEgRR5oxTzQilmglchCGVoxE7RiFoqy64rqVcyEyK4yw0zYYyYsNW56bGooTF8js6Fdpy6joRkH050KS789bu85NRBkKsh8mO6QmB5r5BgzATOhan6zM6FvuaHoMy+KPrNQlC364qhxM7Tic4tWzEIRWok80Ip5oBWz6NEKZkLkVp1hJpzDTJj+tnf6TfnNDFi6zlzGQnt+6fr1teapHUtj114z2uOYCZgJVXMaM6FvyaHoMy+KPrNQRIMUeaAV80ArZoFWIgtlaMVM0IpZKMquK5gJkVt1hplwQTOhfUu+TAVNZt3WGqF916+vjWnXri9dUrE25ll/HDMBM6FqDmMm9C05FH3mRdFnFoqyRV8cNW6GVnxu0YpZKEIrkQdaMQ+0YhY9WsFMiNyqM8yEc5gJ7TIHXYrQmp62g0ATul3e0J5r99qxoOez16FPv1W/mRbtvUa+x0zATKia35gJfUsORZ95UfSZhSIapMgDrZgHWjELtBJZKEMrZoJWzEJRdl3BTIjcqjPMhAUzQbsMdFmBDIJ5U9MMAU3c+eUM7fsSlr5ocfp9CtMvypPxsHQcPdb+IsQx7UoQb8wEzIS57g6VYyb0LTkUfeZF0WcWirJFXxw1boZWfG7RilkoQiuRB1oxD7RiFj1awUyI3KozzIQVM0ETUzcZBNpJoFszC/T4UoPfLmNoY9u49l0JelzxdOfCdEdDe30zEfT6nu9XOFTDVf2+x2Ym6Hy3cz+9n5pObU4tnQuN0fPT17fXTedXe6zd73vPNk7v3V4/4j1mQt+SQ9FnXhR9ZqGIBinyQCvmgVbMAq1EFsrQipmgFbNQlF1XVM/qtfxcDgHMhAUzQU2Tmik18tPGXrEe03NrjZV2IMzHaZKrKZPZMB8nY0HGxNRwkGlx+5tv7T3O/H1Gyo/FTNA5bg390r2eb+e1Pd/y6X17n/lOGb2mfZeH5tR0jOJ974mZ8OgDObuQXc7Hd/1RKfrMnKLPLBShlcgDrZgHWjELtBJZKEMrZoJWzEJRdl1RPYuZENlVZpgJK2bCvPEif3Lr/aGYHIuZcCh+vG9+rrIzoW+5oegzL4o+s1CULfriqHEztOJzi1bMQhFaiTzQinmgFbPo0QpmQuRWnWEmYCY88Rvry25GMRPyzfBln6tn/fiYCX1LDkWfeVH0mYUiGqTIA62YB1oxC7QSWShDK2aCVsxCUXZdwUyI3KozzATMBMwE5sDm5kCVSYGZ0LfkUPSZF0WfWSjKFn1x1LgZWvG5RStmoQitRB5oxTzQiln0aAUzIXKrzjATaCQ310iyM4GdCZgJ1UtB7ngUfeZE0WcWimiQIg+0Yh5oxSzQSmShDK2YCVoxC0XZdQUzIXKrzjATMBMwE5gDm5sDmAnVS0HueBR95kTRZxaKskVfHDVuhlZ8btGKWShCK5EHWjEPtGIWPVrBTIjcqjPMBBrJzTWS7ExgZwJmQvVSkDseRZ85UfSZhSIapMgDrZgHWjELtBJZKEMrZoJWzEJRdl3BTIjcqjPMBMwEzATmwObmAGZC9VKQOx5FnzlR9JmFomzRF0eNm6EVn1u0YhaK0ErkgVbMA62YRY9WMBMit+oMM4FGcnONJDsT2JmAmVC9FOSOR9FnThR9ZqGIBinyQCvmgVbMAq1EFsrQipmgFbNQlF1XMBMit+oMMwEzATOBObC5OYCZUL0U5I5H0WdOFH1moShb9MVR42ZoxecWrZiFIrQSeaAV80ArZtGjFcyEyK06w0ygkdxcI8nOBHYmYCZULwW541H0mRNFn1kookGKPNCKeaAVs0ArkYUytGImaMUsFGXXFcyEyK06w0zATMBMYA5sbg5gJlQvBbnjUfSZE0WfWSjKFn1x1LgZWvG5RStmoQitRB5oxTzQiln0aAUzIXKrzjATaCQ310iyM4GdCZgJ1UtB7ngUfeZE0WcWimiQIg+0Yh5oxSzQSmShDK2YCVoxC0XZdQUzIXKrzjATMBMwE5gDm5sDmAnVS0HueBR95kTRZxaKskVfHDVuhlZ8btGKWShCK5EHWjEPtGIWPVrBTIjcqjPMBBrJzTWS7ExgZwJmQvVSkDseRZ85UfSZhSIapMgDrZgHWjELtBJZKEMrZoJWzEJRdl3BTIjcqjPMBMwEzATmwObmAGZC9VKQOx5FnzlR9JmFomzRF0eNm6EVn1u0YhaK0ErkgVbMA62YRY9WMBMit+oMM4FGcnONJDsT2JmAmVC9FOSOR9FnThR9ZqGIBinyQCvmgVbMAq1EFsrQipmgFbNQlF1XMBMit+oMMwEzATOBObC5OYCZUL0U5I5H0WdOFH1moShb9MVR42ZoxecWrZiFIrQSeaAV80ArZtGjFcyEyK06w0ygkdxcI8nOBHYmYCZULwW541H0mRNFn1kookGKPNCKeaAVs0ArkYUytGImaMUsFGXXFcyEyK06w0zATMBMYA5sbg5gJlQvBbnjUfSZE0WfWSjKFn1x1LgZWvG5RStmoQitRB5oxTzQiln0aAUzIXKrzjATaCQ310iyM4GdCZgJ1UtB7ngUfeZE0WcWimiQIg+0Yh5oxSzQSmShDK2YCVoxC0XZdQUzIXKrzjATMBMwE5gDm5sDmAnVS0HueBR95kTRZxaKskVfHDVuhlZ8btGKWShCK5EHWjEPtGIWPVrBTIjcqjPMBBrJzTWS7ExgZwJmQvVSkDseRZ85UfSZhSIapMgDrZgHWjELtBJZKEMrZoJWzEJRdl3BTIjcqjPMBMwEzATmwObmAGZC9VKQOx5FnzlR9JmFomzRF0eNm6EVn1u0YhaK0ErkgVbMA62YRY9WMBMit+oMM4FGcnONJDsT2JmAmVC9FOSOR9FnThR9ZqGIBinyQCvmgVbMAq1EFsrQipmgFbNQlF1XMBMit+qsy0z41S9f37148yVuMDjoHNA8+5UrVw56DOYxOtYceOHGizstQu+///7iZ++tW7d2V65cOS12VPAc++25557bXbt27eg5aB7cuHHjdO7o/tjnhf7/JycnaGXyGaHPDbTy6DMTrcS1A61EHmjFPNCKWbR15erVq4v12fRB1XHSFWtx5FfFQ2vd2nn60vREvfbarlD3LQAAAINJREFUa7t333331CWSU8QNBoeaA5pnauIO9f68L3O3zYH79+/v9Nn22WefTT/uHscPHjxgLk4+719//fXdnTt30OZ77+3u3bt3Ond03+bTMd/zuR0/V7WGoZVHTNBKnBtoJfJAK+aBVsxC66m08uabbz6uydYCetTIrboW0Vq3dp7+D7NPKMhxZCf2AAAAAElFTkSuQmCC;" parent="1" vertex="1">
          <mxGeometry x="22" y="437" width="1157.74" height="481.74" as="geometry" />
        </mxCell>
        <mxCell id="iZvC2-cqgZa5u_m9WsRP-2" value="Cancle" style="verticalLabelPosition=middle;verticalAlign=middle;shape=mxgraph.basic.rect;fillColor2=none;strokeWidth=2;size=20;indent=5;labelPosition=center;align=center;fontSize=27;fontStyle=1;fontFamily=Helvetica;strokeColor=#0e8088;gradientDirection=south;spacing=3;spacingTop=0;fillColor=#3399FF;" parent="1" vertex="1">
          <mxGeometry x="794" y="1008" width="174" height="56" as="geometry" />
        </mxCell>
        <mxCell id="iZvC2-cqgZa5u_m9WsRP-3" value="" style="shape=image;html=1;verticalAlign=top;verticalLabelPosition=bottom;labelBackgroundColor=#ffffff;imageAspect=0;aspect=fixed;image=https://cdn2.iconfinder.com/data/icons/font-awesome/1792/hand-pointer-o-128.png;rounded=0;sketch=0;strokeColor=#788AA3;fillColor=#4481DB;fontColor=#000000;align=center;rotation=45;imageBackground=#F7F7F7;" parent="1" vertex="1">
          <mxGeometry x="600" y="580" width="47.23" height="47.23" as="geometry" />
        </mxCell>
        <mxCell id="iZvC2-cqgZa5u_m9WsRP-4" value="" style="shape=image;verticalLabelPosition=bottom;labelBackgroundColor=#ffffff;verticalAlign=top;aspect=fixed;imageAspect=0;image=data:image/png,iVBORw0KGgoAAAANSUhEUgAAAW4AAADCCAYAAABpCyiuAAAYtUlEQVR4Ae2d7W9cZXqH/Q/wBQmJDwgJlVLaUkoppYVtRUGFCspLS6tSCggE4qVFvBQqUFUqaIFSNS0qlCVZNpAE2AVnEzbbsiRAlpSoxMSFZUOCiRMTk5DFsUE245nxODjJXf2OuSePH5+xTbA95/FcH0Zn5sx5m+e+zvX85jln7Lbe3l7btWtX9ujp6TE9du7cad3d3bZ9+3b78MMP64+uri7jQRvAAAzAwNwxEDpXDpaL5WT3s3zddujQITt48KCNjY3Zl19+aaOjo9lj//79xoM2gAEYgIHmM+BelqPl6jZJ+8CBA5m0a7Wa6UGhml8oakANYAAGQgbcz5J3Jm4ZXEYvl8tIm28aMAADMFBQBuRoubrN0/bIyIgNDg5SsIIWLOx5eU4Sg4HWZECOlqszcQuCSqViAwMDiBtxwwAMwEBBGZCj5eo2HyYZHh62ffv2UbCCFoyE1ZoJi7pT95ABOVquniDuTz/9FHEjbhiAARgoKANyNOIuaHHCHpbnJC4YgAFnYJK4S6WSkbgBxAFhCgswUDwG5Gi5Ohsq0f2BiLt4ReLEoSYwAAMhA4ibYRLGMWEABhJjAHEnVrCw1+U5KQwGWpMBxI24SVswAAOJMYC4EysYCas1ExZ1p+4hA4gbcZO2YAAGEmMAcSdWsLDX5TkpDAZakwHEjbhJWzAAA4kxgLgTKxgJqzUTFnWn7iEDiBtxk7ZgAAYSYwBxJ1awsNflOSkMBlqTAcSNuElbMAADiTGAuBMrGAmrNRMWdafuIQOIG3GTtmAABhJjAHEnVrCw1+U5KQwGWpMBibujo4M/68oJ0JonAHWn7ikygLhJ3HxNhgEYSIwBxJ1YwVJMBxwzqRYGZpcBxI24SVswAAOJMYC4EysYyWV2kwvtSXumyEAhxb18+XJra2szTRs1qg78/PPPtxtvvNG++OKLhss1Wn+q+drvqaeealu3bj2i7Q4PD9vKlStt+/btR7T+VMfGe4gGBmAAceck7m8q7m+6PicmJyYMwMBUDCBuxM23ghwGpjppeA+pNpsBxJ1z0n7TxPxN1282FOwfMcFAsRlYUOLesGFDNja+du1ae/TRR+2kk06yo446yi699FJ7/fXXbXR0dEK6rFar1t7ebueee2623mWXXWadnZ3Z2Ho8xj04OGiPP/54tqy2qTH40047zR566CHr6+vLtquxdo256z1/aBxejawToVar2WuvvZYdj7Zx9NFH27XXXmvvvvvuhOPipCn2SUN9qE+zGViQ4j7rrLPsjDPOsKVLl9rq1avtoosuygT+3HPP1QU5MjJijzzySCbYm2++2V555RV74okn7Oyzz7ZbbrllwsXJffv22ZVXXmnHH398Jup169bZmjVr7Kabbsq2e+edd5ouSGqbEv99991nJ554YtYBbNy4MXtPnYT2J2FfccUV2fovvPBCdoFV21XH0mwY2D9CgoE0GFiQ4j7zzDNty5YtdRF+9tlndvXVV9t5551nu3fvzua/9957dvLJJ9sDDzxgkqoDq/WUtsPErSSvdK107stpqvXuvvtuO/30062rq6v+Xt5QyaZNmzLxx/tTkr/hhhsmHFu4D56ncSJRJ+o0nwwsSHErOceNqESt4QslcL2nZZSK33nnnQnLKjXfc889E8Qdbyt8nSfpeJ6GaCTssDMIt+HHpmk4n+fIAAZgII8BibtUKhXrj0xJfJKspnkHrXk68Pg+bh/j1jReT/dkS5wPPviglctlu/3227OUu3fv3knLxuL1bWm97u5u01DJY489Ztdcc02WomMhx+v72Le+Cbz00kvZsIiGRvyxZMkSO+aYY7LOxPfFlBMWBmCgEQOFFLcLeCpx79y50zSWHf4AR+udcsop9v7770+SsYv7/vvvz36wo/XCC4dhA8Xi1ZDIs88+m13s9IuOuvB566232m233TYpScfreyfj6zaa6tjC4+A5Jy4MwEAeA4UUty7o6SJe3pCHfwjJWZLWhUC/W8SFn5e4fflFixZ97cS9atWq7Hiuu+66bCxbyduPQ8c4XeIeGhqy66+/3i6//HIbGBior+vbYMrJCQMw8HUYKKS489J0/KF0oTAeTnFx5yX1eBxZwj322GOzP0Yebjsej/Zhlbwk32g8PE7cjZbz/erYdPFTd6r4PKacyDAAA40YKKS4dWudbrFT6l62bFl2/3P4AST2Cy+8MLt1b8eOHXXZubgvueQS++STT+rz+/v77aqrrrKLL77YfEzbh05065/u7PDt664SjUV7inbp6kLm5s2b68tp+TfffDO7MyW+yClxx6Jfv3591lFoOESfz/ene8CVxLVPjZ/7fKactDAAA40YKKS4dbASrwSsVK0fyEh4Dz/8cCZg/XBF9z4rdfswidZxcStJa/xa90k3ulda661YsWLCfdW671v3f2t9F7e269I955xzsu0pId9777123HHHZRcodYzh8Iyne92dEt7HrePXsvF93OqgdCzhZ2lUMOZzMsMADBRW3IJTSVh3XFxwwQWZYCU9XRS84447LEzaDrKLO/zl5FS/TpQodWeHfqDj29YvLp988skJ4tZyr776av0Xluo0dFeKjkG3Eypx6zj9OHTcGnvXvsN7vONfTkrYjX7V6dtiykkKAzAQM1BocccHO91rF3eYfqdbh/c5KWAABlJjAHHn/JGp1IrI8SIeGGgtBhA34q4P8XDyt9bJT73TrTfiRtyIGwZgIDEGFpS4SRDpJghqR+1gYOYMIO7EelrgnjnctBVttVAZQNyIm6/JMAADiTGAuBMr2EJNEHwu0jEMzJwBxI24SVswAAOJMYC4EysYqWTmqYS2oq0WKgOIG3GTtmAABhJjAHEnVrCFmiD4XKRjGJg5A4gbcZO2YAAGEmMAcSdWMFLJzFMJbUVbLVQGEDfiJm3BAAwkxgDiTqxgCzVB8LlIxzAwcwbq4tb/VtQ/tdW/+ert7aUHRugwAAMwUFAG5Gi5uq2npyf7n4fbtm2zzs5OClbQgpFKZp5KaCvaaqEyIEfL1W1jY2PZP+UtlUqmGL5QPzCfi5MZBmAgdQbqQyWIG5hTh5njh+FWYQBxMyTCtysYgIHEGEDciRWsVRIFn5P0DAONGUDciJu0BQMwkBgDiDuxgpFCGqcQ2oa2aRUGEDfiJm3BAAwkxgDiTqxgrZIo+JykZxhozADiRtykLRiAgcQYQNyJFYwU0jiF0Da0TaswgLgRN2kLBmAgMQYQd2IFa5VEweckPcNAYwYQN+ImbcEADCTGAOJOrGCkkMYphLahbVqFAcSNuElbMAADiTGAuBMrWKskCj4n6RkGGjNQOHGf8GSZ3p/OBAZgAAamYABxT9E49PiNe3zahraBgeYxgLgRN8kGBmAgMQYQd2IFI+U0L+XQ9rR9URhA3IibtAUDMJAYA4g7sYIVpcfnOEifMNA8BhA34iZtwQAMJMaAxN3R0WFtRfkv79wO2LxenARF28NAGgwg7sR6Wk6sNE4s6kSd5pIBxI24+ZoMAzCQGAOIO7GCzWUvzrZJiTCQBgOIG3GTtmAABhJjAHEnVjASURqJiDpRp7lkAHEjbtIWDMBAYgwg7sQKNpe9ONsmJcJAGgwgbsRN2oIBGEiMAcSdWMFIRGkkIupEneaSAcSNuElbMAADiTGAuBMr2Fz24myblAgDaTBQOHEDThrgUCfqBAPNY0DiLpVKxfkjU8DQPBhoe9oeBtJgAHEzVML4JgzAQGIMIO7ECkYiSiMRUSfqNJcMIG7ETdqCARhIjAHEnVjB5rIXZ9ukRBhIg4HCifuG/1xnJ3y7xIM2gAEYKDQDclWzOrrCiXv5z0YKXSw6FTpVGIABMSBXIe6vhiwQNycFYoSBFBhA3IwzN63nblZiYL9pjKVSp2LWqXBDJYBSTFCoC3WBgeIwgLhJ+6R9GICBxBhA3IkVjNRTnNRDLahFsxhA3IibtAUDMJAYA4g7sYI1q4dnv6RLGCgOA4gbcZO2YCBZBoaGhmzx4sV21113ZVO9DjuYvXv32po1a6xSqdTna96KFSssXtbX27Fjx6Rtbd68OduH9qPnvmyzpoibk7bpEDYLfvZbnAR5pLVYu3at6aH1w+e+PUnY39c8SXvRokWTxOzLe0egzsDFrnX0WtPwua/TjCniRtyIGwaSZMAlKzm7lOMkLWn7+56aNS8UcyheLbN8+fIJ72tee3t7PbVr/WanbsTNSZvkSRuebDxPPzkfSQ3j9Bu/ltglXE/OH3/8cSbfvKEQ7V/ra1jlgw8+mCBuiVoPP8b4tc+fzyniRtx1IOcTPPbVmrKdzbpLtGHClqD1WvO1HxdxOL6t+Y3ELSHrvfh9zQ8Ttp6HIp/NzzTTbSFuxI24YSBJBqYTtwQbCtelGIvZZe4yjt9H3JwgSZ4gDjxTUnKRGJC4/aKhjit+LeFKwvExx2JWItcQidbXsvH72o5LXe/Hr+Ptz8drEjedySSw5wM89kEn8E0ZyBsa8aGTeHw73FcsZglbd5roVr/woXl6Lx4akbjzkny4j7l+jrgRN+KGgWQZCNNv+Fxy1us8gcbijpeJ3w+TfPg8Xm8+X9fFXS6Xs6uv/f391tvbm/uB5/PA2BeJDAZgYDoGlKw1XBL/AKfR+La2F4s53kfe+9qep/Fmp20drxwtV7f19PRYd3e3bdu2zTo7OxE3KQwGYAAGCsqAHC1Xt42NjVmtVrNSqWSK4XEvxGvSDwzAAAwUg4H6UAniLkZBODGoAwzAwHQMIO6CfhWarnC8z8kNA63LAOJG3AyLwQAMJMYA4k6sYKSs1k1Z1J7aOwOIG3GTtmAABhJjAHEnVjDvcZmSvmCgdRlA3IibtAUDMJAYA4g7sYKRslo3ZVF7au8MIG7ETdqCARhIjAHEnVjBvMdlSvqCgdZlAHEjbtIWDMBAYgwg7sQKRspq3ZRF7am9M4C4ETdpCwZgIDEGEHdiBfMelynpCwZalwHEjbhJWzAAA4kxgLgTKxgpq3VTFrWn9s4A4kbcpC0YgIHEGEDciRXMe1ympC8YaF0GEDfiJm3BAAwkxgDiTqxgpKzWTVnUnto7A4gbcZO2YAAGEmMAcSdWMO9xmZK+YKB1GZC4Ozo6rI3/8t66ECAAag8DaTGAuEncfE2GARhIjAHEnVjBSEZpJSPqRb3mggHEjbhJWzAAA4kxgLgTK9hc9N5sk1QIA2kxgLgRd1PSVt8Xo3bPT0bst5aV7RcWjz/0/JG3RmywMpp7TJp/6Q8qdsKTZfuXt0Zyl3n+/ZHs/YtXVqx/ePJ2NO/CFyvZI37/w4FRu+mVqv3G0+P70HH97rMVW/pezUZqh0/sns9H7Yxnytl+dCx5j1/9bsXe2DW+fz8mTVtNkMMj++3b/zeStaPaU22ltrn+5aqpvRu1R/u2mp24pGxnryjbR58fXu6pd2sZL//e0bgtyyP77co1lYyt7oFRu//Nam6Nwrpd86NKw2NpdIzNnI+4Efe8A/tqT81Oe7piJ3+nbDe8XLWnflqz/9g8kslUJ/cftVesr3RYlH6CbNpdy6SqE/8Pvp+/jEtS2/mnjdVJny1P3KP799vT79Wy4znluxW787WqPfOzmv3rpnHh6ATXcUpCOhYX95nLxufrvfjx12urtrWvtcWt9lK7qP1+c1nFJEe9Pvd7lUy+YuAnX3VuXmNNVY+bX6lmgv+l75RNsvb33+8bzbalDrxRB//2JzX79acr2Ta0LYlbncCfvTS5Tl438ef7SGGKuBH3vAIrmf328rL9zoqy/fTnh5OUn7A6gXSS3bqump3A4Ul07xsjdvozFfu7N0bsF5eUTaksfF/PXdyShcTQsWfiMnnifv2j0UwSF7VX7JOhiR2G5PO360cy0fzbVynPxT3TlObH1GqJWx30Lz81sdPzev14Ry1rcyVjJWSfr6nL+cYfV7MOOpS0S/3XllZMHXm4nj/XtzHtV/vXPIk7/Abky6U8RdyIOxf+uYJa8pWY86SrfSpFXb66mj00nOLH8fMv9mdJ7Y9XVU2JSgku76R3SSo162S9fFV1QjKLxe1fq6cSgb6qKyX+1dqqlaqHEzfinihcr5VPvRZ5HZba/c9/WLVvPVu23YMTt7P4nfFhktVdNRMvoYS17Zd31ExJXEL2ffk0rq/mI24kNwkUB4bpxJMvrz1cvpKgnuct02iej3lqbFOp69r/qliebF0Wz20ZsX/4n+qEpKxtxyf2lr7RLMVLInHya3QsJO6Z1U6JWDW6ak3Fwk64Ubtqvl/HcKHrOoE6YA2dqO5aRsNoGirLGy7zlB9eA0HciPtryWYqQFvxve0D4+OTOpH9JJxJO7ioNUwi0WodiVnj2OEJqvkubk11gv/hi5UJQyaxuNd/NGq/8lTZ/n7D5PTW6Nhc3OHFrfi5LoBqX/ExNdrmQpyvuqk+GtZSrdRhP/BmNRvX9usF8ed2Ud+9fnzM2esVX6SMh0N8O1pP38Y03OLzJO64PvHrvG8Fvn4RpwyV0BnVAZ9rQP2knOkQgx+Pj3mGQyMavtDJHKeuUNxa38evfcjEReBi9eXzvnb7/uOpi3uqi5MPbKza0Fd3x/g+UpND/LmP9HVX/6hJqH4HkaQpmWvoKU7ieUMjkrTEH16k9AuQLngdmzMRcqL5qu10Fyc3fnxY9Ef6OedzPcSNuOdN3C68r5u4805cpTl9fY7Hy2NJarlwyCQWt3cmR5K4Z9oBxcc0nyd40falzmzdzppd/aPxO0vCO4hcvHFn7EMu4UVKvzbhQyr6nBpO051K8fWThTpUUiqV+CNTRQN8IR6PS3O6MW7d333O8xV7e0+tPuYZf7UNX4cJK0+S4ZDJaz21Cfdx6z5fJcGpxrglib9cU7FLVlayVOcdEOKe2Vh3HsvqUP/5f8eT9Atbx4dF/DpGWNvweXyRMhS1tqfrHrH0tW/ETTqdt3SaB/tCmDfdXSV7hvbbed+r1H944RebdKue7q0OH0verWU/7AgvUuaJW+3mQyYa8/795w//AMeTW7iNuJ1126LG1z3xIe7phf15efzHUlN10j/4oGYnLi5n1yW8DpLzP24cv48+rLWGRDRcEl6k9ISuebr2obFt8RXXD3Ej7klQxJDweuqT2iWYdx+3LlhlYg9+PKMTNh4OCdtYwyhKZX7CNhK3D5l4gvMxbm3r5e7x+43z7uMeGB7N7orQmKwuiGp5xD11jb0+qolkq29Q8Y9l1K5/8cPDdwb53T3eOfo2fOqSji88ah+61qFrCo06X8SNuBH3LDDw/a0j2S1e4S8n836l6Cdr3tdfP6H9wqXfddBI3Freh0wk71Dckro6AMk5/OXkfRuq2U/bJR/dDaHltB0X91QXJ/WLPB8C8GPSz/D9l3rhNLVf7XnbTzdVe2sMW+2tWv/p6vFfLmqq12G75l3HiLcvSWtbWtbf0zWKU5dWMp4aDXdJ3NNdnPyb16v2ac6vdX0/RZvq4iRj3LMgo6IVtujHo79Tob9XoZNOJ6NO4vjvgvjfpQhP1PhzSabhRUqXpKbxsnrt6ToUty+nMfU/WTX+wx0dk0R+/gsV++/uWl3aWtbFrWWmekgYWt6PqdGyMx0r9+NMaaqkrU75956rZO2Z164SvDpn73wbfb68i5R+37f4Ce86CbehOjRqe5+vvz2juobrFfk54kbaycBa5BOJY5vZ8AntNDvthLgRN+KGARhIjAHEnVjBSCyzk1hoR9oxZQYQN+ImbcEADCTGAOJOrGAppwSOnZQLA7PDAOJG3KQtGICBxBhA3IkVjMQyO4mFdqQdU2YAcSNu0hYMwEBiDCDuxAqWckrg2Em5MDA7DCBuxE3aggEYSIwBxJ1YwUgss5NYaEfaMWUGEDfiJm3BAAwkxgDiTqxgKacEjp2UCwOzwwDiRtykLRiAgcQYQNyJFYzEMjuJhXakHVNmAHEjbtIWDMBAYgwg7sQKlnJK4NhJuTAwOwwgbsRN2oIBGEiMgbq4y+WyDQ0NWX9/v/X29lLIxApJkpmdJEM70o4pMCBHy9VtPT091t3dbdu2bbPOzk7EjbhhAAZgoKAMyNFyddvY2JjVarXsPwcrhqfQ63CMpCMYgIFWZKA+VCJxj46OIu6C9rCtCCefGSnDQD4Dk8Q9PDxsJO78xgIi2gUGYKAIDMjRcnU2VKLEjbgBswhgcgxwCAONGcgVd19fH2PcDJnAAAzAQEEZkKOzxH3gwIGsSLotcN++fdlYNz1e4x6PtqFtYAAGmsFAqVTKHC1Xt7m4K5WKDQwM2O7du7P7uptxYOyTEwIGYAAGJjOg39rIzXK0XN128OBB81sCBwcHbc+ePdbV1WUbNmywVatW2cqVK629vX3C48UXXzQetAEMwAAMzB4DsWflXjlYLpaT5WY5Wrdvtx06dMgkb/VyPlyya9cu27Jli7399tu2adMme+utt3jQBjAAAzAwjwzIvXKwXCwnayhbjpar/x9c+u2uAZ1WpgAAAABJRU5ErkJggg==;" parent="1" vertex="1">
          <mxGeometry x="654.0008549499512" y="580.866707356771" width="366" height="194" as="geometry" />
        </mxCell>
      </root>
    </mxGraphModel>
  </diagram>
</mxfile>
